<svg width="105" height="105" viewBox="0 0 105 105" fill="none" xmlns="http://www.w3.org/2000/svg">
<rect width="105" height="105" rx="52.5" fill="#0C1225"/>
<path d="M86.2964 38.6171C78.691 31.1276 66.3157 31.1276 58.7114 38.6171L52.0009 45.2258L45.2894 38.6171C37.6841 31.1276 25.3087 31.1276 17.7045 38.6171C10.0996 46.1062 10.1005 58.2923 17.7064 65.7814C21.5091 69.5262 26.5044 71.3985 31.4993 71.3985C36.4942 71.3985 41.4892 69.5262 45.2913 65.7814L52.0019 59.1727L58.7134 65.7814C62.5161 69.5262 67.5114 71.3985 72.5063 71.3985C77.5011 71.3985 82.4962 69.5262 86.2983 65.7814C93.9032 58.2923 93.9023 46.1062 86.2964 38.6171ZM38.199 58.7978C34.5043 62.4358 28.493 62.4358 24.7977 58.7978C21.1028 55.1594 21.1024 49.2391 24.7968 45.6008C26.6441 43.7818 29.0706 42.8721 31.4972 42.8721C33.9238 42.8721 36.3505 43.7818 38.1981 45.6008L44.8992 52.1993L38.199 58.7978ZM79.206 58.7978C75.5113 62.4358 69.4999 62.4358 65.8047 58.7978L59.1036 52.1993L65.8038 45.6008C69.4985 41.9627 75.5098 41.9627 79.2051 45.6008C82.9 49.2391 82.9004 55.1594 79.206 58.7978Z" fill="url(#paint0_linear_10_46)"/>
<path opacity="0.4" d="M52.0015 59.1724L59.1032 52.199L65.8043 58.7975L58.713 65.7812L52.0015 59.1724Z" fill="url(#paint1_linear_10_46)"/>
<path opacity="0.4" d="M52.0016 45.2262L44.8999 52.1996L38.1987 45.6011L45.2901 38.6174L52.0016 45.2262Z" fill="url(#paint2_linear_10_46)"/>
<defs>
<linearGradient id="paint0_linear_10_46" x1="27.9589" y1="75.8769" x2="75.3052" y2="27.7942" gradientUnits="userSpaceOnUse">
<stop stop-color="#F06292"/>
<stop offset="0.49588" stop-color="#9575CD"/>
<stop offset="1" stop-color="#80DEEA"/>
</linearGradient>
<linearGradient id="paint1_linear_10_46" x1="55.5471" y1="55.6806" x2="62.1556" y2="62.3908" gradientUnits="userSpaceOnUse">
<stop/>
<stop offset="1" stop-opacity="0"/>
</linearGradient>
<linearGradient id="paint2_linear_10_46" x1="48.4559" y1="48.718" x2="41.8475" y2="42.0078" gradientUnits="userSpaceOnUse">
<stop/>
<stop offset="1" stop-opacity="0"/>
</linearGradient>
</defs>
</svg>
