<svg width="669" height="159" viewBox="0 0 669 159" fill="none" xmlns="http://www.w3.org/2000/svg">
<g clip-path="url(#clip0_521_3637)">
<path d="M4.3833 0.751465H38.402C48.4532 0.751465 56.4415 2.79406 62.1507 6.81719C65.3611 9.07721 67.832 11.9634 69.5013 15.3854C71.1826 18.8456 72.0361 22.8556 72.0361 27.3117C72.0361 32.7393 70.5707 37.8465 67.794 42.1119C66.5326 44.0526 65.0173 45.7765 63.2703 47.2834C65.807 48.7267 68.0359 50.54 69.9212 52.6598C74.215 57.5246 76.4959 63.9478 76.4959 71.2388C76.4959 79.9361 73.4133 87.2272 67.5642 92.3465C61.4749 97.6598 52.8233 100.354 41.8406 100.354H4.3833V0.751465ZM48.2874 37.3615C50.6322 35.6887 51.7795 33.1091 51.7795 29.4827C51.7795 24.8603 49.6249 23.1232 48.9249 22.5613C46.5681 20.6589 42.542 19.6501 37.2805 19.6501L24.3858 19.7392V39.826H38.5281C42.6561 39.826 46.0325 38.9705 48.2874 37.3615ZM52.4154 78.4156C54.8241 76.6283 55.9836 73.9856 55.9836 70.3452C55.9836 66.5785 54.7861 63.8075 52.3015 61.8541C49.485 59.6443 44.9491 58.4701 39.1656 58.4701H24.3858V81.3285H40.8211C45.8545 81.3285 49.8546 80.319 52.4154 78.4156Z" fill="url(#paint0_linear_521_3637)"/>
<path d="M85.2803 100.354H149.621V81.7095H85.2803V100.354ZM85.2803 60.2574H149.621V41.2306H85.2803V60.2574ZM85.2803 0.751465V19.7783H149.621V0.751465H85.2803Z" fill="url(#paint1_linear_521_3637)"/>
<path d="M156.126 85.6563L153.438 82.7693L166.599 66.9871L170 71.2647C172.663 74.6107 176.141 77.3556 180.041 79.1948C183.709 80.9309 187.671 81.8375 191.494 81.8375C196.005 81.8375 199.852 80.8418 202.324 79.0416C204.553 77.4196 205.637 75.2488 205.637 72.3887C205.637 69.2723 204.681 67.3448 202.248 65.5185C199.444 63.4239 194.908 61.7128 189.646 59.7213C189.201 59.5549 188.743 59.3765 188.271 59.1974C181.047 56.5034 174.104 53.7325 168.535 49.2887C165.299 46.7091 162.904 43.861 161.209 40.5921C159.324 36.9657 158.368 32.8413 158.368 28.3333C158.368 20.4804 161.758 13.2146 167.899 7.87609C173.862 2.70486 181.874 -0.142334 190.476 -0.142334C201.585 -0.142334 212.427 3.86697 221.817 11.4394L225.207 14.1851L212.987 30.1216L209.421 27.1843C203.14 21.987 196.233 19.0118 190.476 19.0118C185.124 19.0118 178.855 21.336 178.754 27.8866C178.716 30.8108 180.117 32.4066 182.244 33.9013C185.29 36.0462 190.13 37.8974 195.254 39.864L195.304 39.8769C196.107 40.1965 196.909 40.516 197.712 40.8216C204.961 43.6697 211.816 46.3514 217.013 50.642C223.154 55.724 226.149 62.4151 226.149 71.1115C226.149 75.8237 225.143 80.2037 223.154 84.1357C221.281 87.8142 218.606 91.0198 215.166 93.6625C208.899 98.4631 200.451 101.12 191.367 101.12C177.938 101.12 165.427 95.6299 156.126 85.6563Z" fill="url(#paint2_linear_521_3637)"/>
<path d="M278.011 0.751465H260.773L223.124 100.354H244.299L269.361 31.3087L294.639 100.354H315.813L278.011 0.751465Z" fill="url(#paint3_linear_521_3637)"/>
<path d="M269.536 100.354L253.718 75.8113H285.218L269.536 100.354Z" fill="url(#paint4_linear_521_3637)"/>
<path d="M381.471 10.1242C375.458 3.90511 366.678 0.751465 355.365 0.751465H319.309V100.354H339.311V19.7783H354.218C359.149 19.7783 363.098 20.9524 365.621 23.1875C368.119 25.3712 369.381 28.7042 369.381 33.058C369.381 37.2725 368.157 40.5412 365.748 42.7763C362.92 45.394 358.448 46.7223 352.435 46.7223H349.075V65.7482H353.454C358.626 65.7482 363.404 65.123 367.634 63.8969C372.145 62.5816 376.056 60.5769 379.28 57.9333C382.681 55.1372 385.305 51.6381 387.076 47.5267C388.861 43.3764 389.765 38.6008 389.765 33.3136C389.765 23.7624 386.898 15.7431 381.471 10.1242Z" fill="url(#paint5_linear_521_3637)"/>
<path d="M398.039 7.13588L418.042 0.751465V100.354H398.039V7.13588Z" fill="url(#paint6_linear_521_3637)"/>
<path d="M432.182 100.354H496.522V81.7095H432.182V100.354ZM432.182 60.2574H496.522V41.2306H432.182V60.2574ZM432.182 0.751465V19.7783H496.522V0.751465H432.182Z" fill="url(#paint7_linear_521_3637)"/>
<path d="M527.731 38.1532V100.354H507.729V0.751465H525.45L569.903 63.5263V0.751465H589.907V100.354H571.802L527.731 38.1532Z" fill="url(#paint8_linear_521_3637)"/>
<path d="M598.702 85.6563L596.014 82.7693L609.175 66.9871L612.576 71.2647C615.239 74.6107 618.717 77.3556 622.617 79.1948C626.285 80.9309 630.247 81.8375 634.07 81.8375C638.581 81.8375 642.428 80.8418 644.9 79.0416C647.129 77.4196 648.213 75.2488 648.213 72.3887C648.213 69.2723 647.257 67.3448 644.824 65.5185C642.02 63.4239 637.484 61.7128 632.222 59.7213C631.777 59.5549 631.319 59.3765 630.847 59.1974C623.623 56.5034 616.68 53.7325 611.111 49.2887C607.875 46.7091 605.48 43.861 603.785 40.5921C601.9 36.9657 600.944 32.8413 600.944 28.3333C600.944 20.4804 604.334 13.2146 610.475 7.87609C616.438 2.70486 624.45 -0.142334 633.052 -0.142334C644.161 -0.142334 655.004 3.86697 664.393 11.4394L667.783 14.1851L655.563 30.1216L651.997 27.1843C645.716 21.987 638.809 19.0118 633.052 19.0118C627.7 19.0118 621.432 21.336 621.33 27.8866C621.292 30.8108 622.693 32.4066 624.82 33.9013C627.866 36.0462 632.706 37.8974 637.83 39.864L637.88 39.8769C638.683 40.1965 639.485 40.516 640.288 40.8216C647.537 43.6697 654.392 46.3514 659.589 50.642C665.731 55.724 668.725 62.4151 668.725 71.1115C668.725 75.8237 667.719 80.2037 665.731 84.1357C663.857 87.8142 661.183 91.0198 657.742 93.6625C651.475 98.4631 643.027 101.12 633.944 101.12C620.514 101.12 608.003 95.6299 598.702 85.6563Z" fill="url(#paint9_linear_521_3637)"/>
<path d="M14.7061 149.624L3.85205 113.662H8.34668L16.9534 142.991H15.6624L24.1257 113.662H27.3771L35.8404 142.991H34.5972L43.204 113.662H47.6508L36.8445 149.624H33.6409L25.1298 120.346H26.373L17.9097 149.624H14.7061Z" fill="white"/>
<path d="M85.3769 150.142C83.018 150.142 80.8185 149.676 78.7784 148.743C76.7383 147.776 74.9532 146.446 73.4231 144.753C71.893 143.025 70.6976 141.039 69.8369 138.794C69.0081 136.548 68.5938 134.147 68.5938 131.591C68.5938 129 69.0081 126.599 69.8369 124.388C70.6976 122.143 71.8771 120.174 73.3753 118.481C74.9054 116.788 76.6745 115.475 78.6828 114.543C80.7229 113.61 82.9224 113.144 85.2813 113.144C87.6401 113.144 89.8237 113.61 91.8319 114.543C93.872 115.475 95.6572 116.788 97.1872 118.481C98.7173 120.174 99.9127 122.143 100.773 124.388C101.634 126.634 102.064 129.052 102.064 131.643C102.064 134.199 101.634 136.6 100.773 138.845C99.9127 141.091 98.7173 143.06 97.1872 144.753C95.689 146.446 93.9199 147.776 91.8797 148.743C89.8715 149.676 87.7039 150.142 85.3769 150.142ZM85.2813 145.478C87.672 145.478 89.7599 144.891 91.545 143.716C93.362 142.507 94.7965 140.866 95.8484 138.794C96.9003 136.686 97.4263 134.285 97.4263 131.591C97.4263 129.587 97.1235 127.756 96.5178 126.098C95.9122 124.405 95.0674 122.937 93.9836 121.694C92.8998 120.45 91.6247 119.5 90.1584 118.844C88.6921 118.153 87.0664 117.807 85.2813 117.807C82.9224 117.807 80.8344 118.394 79.0175 119.569C77.2324 120.744 75.8138 122.367 74.7619 124.44C73.7418 126.513 73.2318 128.896 73.2318 131.591C73.2318 133.595 73.5187 135.46 74.0925 137.187C74.6982 138.88 75.527 140.348 76.5789 141.592C77.6627 142.801 78.9378 143.751 80.4041 144.442C81.9023 145.133 83.528 145.478 85.2813 145.478Z" fill="white"/>
<path d="M129.893 133.974V129.881H138.882C140.826 129.881 142.325 129.345 143.377 128.274C144.429 127.203 144.955 125.753 144.955 123.922C144.955 122.194 144.429 120.761 143.377 119.621C142.357 118.481 140.874 117.911 138.93 117.911H129.893V113.662H139.073C141.177 113.662 143.01 114.111 144.572 115.009C146.134 115.873 147.329 117.064 148.158 118.584C149.019 120.104 149.449 121.849 149.449 123.818C149.449 125.856 149.019 127.635 148.158 129.155C147.329 130.675 146.134 131.867 144.572 132.731C143.01 133.56 141.177 133.974 139.073 133.974H129.893ZM126.88 149.624V113.662H131.375V149.624H126.88ZM146.006 149.624L133.957 133.508L138.213 131.902L151.696 149.624H146.006Z" fill="white"/>
<path d="M195.495 149.624L178.76 130.865L195.16 113.662H200.994L183.302 132.109V129.414L201.472 149.624H195.495ZM174.982 149.624V113.662H179.477V149.624H174.982Z" fill="white"/>
<path d="M255.695 149.624V145.167H264.923C267.378 145.167 269.53 144.597 271.378 143.457C273.227 142.283 274.662 140.676 275.682 138.638C276.734 136.6 277.26 134.251 277.26 131.591C277.26 128.965 276.734 126.633 275.682 124.595C274.63 122.557 273.179 120.968 271.331 119.828C269.482 118.688 267.346 118.118 264.923 118.118H255.743V113.662H265.019C267.442 113.662 269.673 114.111 271.713 115.009C273.785 115.907 275.57 117.168 277.068 118.792C278.598 120.415 279.778 122.315 280.607 124.492C281.467 126.668 281.898 129.052 281.898 131.643C281.898 134.199 281.467 136.583 280.607 138.794C279.778 140.97 278.614 142.87 277.116 144.494C275.618 146.117 273.833 147.378 271.761 148.276C269.721 149.174 267.505 149.624 265.115 149.624H255.695ZM252.73 149.624V113.662H257.225V149.624H252.73Z" fill="white"/>
<path d="M306.762 149.624V113.662H311.256V149.624H306.762Z" fill="white"/>
<path d="M337.746 149.624V113.662H342.241V149.624H337.746ZM340.806 133.819V129.363H358.115V133.819H340.806ZM340.806 118.118V113.662H358.928V118.118H340.806Z" fill="white"/>
<path d="M383.457 149.624V113.662H387.952V149.624H383.457ZM386.517 133.819V129.363H403.826V133.819H386.517ZM386.517 118.118V113.662H404.639V118.118H386.517Z" fill="white"/>
<path d="M429.168 149.624V113.662H433.663V149.624H429.168ZM432.228 149.624V145.167H451.259V149.624H432.228ZM432.228 133.353V129.104H449.681V133.353H432.228ZM432.228 118.118V113.662H451.02V118.118H432.228Z" fill="white"/>
<path d="M479.04 133.974V129.881H488.029C489.973 129.881 491.472 129.345 492.524 128.274C493.576 127.203 494.101 125.753 494.101 123.922C494.101 122.194 493.576 120.761 492.524 119.621C491.504 118.481 490.021 117.911 488.077 117.911H479.04V113.662H488.22C490.324 113.662 492.157 114.111 493.719 115.009C495.281 115.873 496.476 117.064 497.305 118.584C498.166 120.104 498.596 121.849 498.596 123.818C498.596 125.856 498.166 127.635 497.305 129.155C496.476 130.675 495.281 131.867 493.719 132.731C492.157 133.56 490.324 133.974 488.22 133.974H479.04ZM476.027 149.624V113.662H480.522V149.624H476.027ZM495.153 149.624L483.104 133.508L487.36 131.902L500.843 149.624H495.153Z" fill="white"/>
<path d="M524.129 149.624V113.662H528.624V149.624H524.129ZM527.189 149.624V145.167H546.22V149.624H527.189ZM527.189 133.353V129.104H544.642V133.353H527.189ZM527.189 118.118V113.662H545.98V118.118H527.189Z" fill="white"/>
<path d="M570.988 149.624V113.662H574.144L575.483 119.31V149.624H570.988ZM593.94 149.624L573.57 120.139L574.144 113.662L594.561 143.094L593.94 149.624ZM593.94 149.624L592.601 144.286V113.662H597.095V149.624H593.94Z" fill="white"/>
<path d="M632.383 149.624V114.698H636.878V149.624H632.383ZM621.099 118.118V113.662H648.114V118.118H621.099Z" fill="white"/>
</g>
<defs>
<linearGradient id="paint0_linear_521_3637" x1="4.3833" y1="51.3754" x2="670.495" y2="51.3754" gradientUnits="userSpaceOnUse">
<stop stop-color="#9575CD"/>
<stop offset="0.0235601" stop-color="#9478D0"/>
<stop offset="0.0471202" stop-color="#927BD2"/>
<stop offset="0.0706803" stop-color="#917DD5"/>
<stop offset="0.0942404" stop-color="#8F80D7"/>
<stop offset="0.1178" stop-color="#8E83DA"/>
<stop offset="0.141361" stop-color="#8C86DC"/>
<stop offset="0.164921" stop-color="#8B88DE"/>
<stop offset="0.188481" stop-color="#898BE0"/>
<stop offset="0.212041" stop-color="#888EE2"/>
<stop offset="0.235601" stop-color="#8691E3"/>
<stop offset="0.259161" stop-color="#8593E5"/>
<stop offset="0.282721" stop-color="#8396E6"/>
<stop offset="0.306281" stop-color="#8199E8"/>
<stop offset="0.329841" stop-color="#809CE9"/>
<stop offset="0.353401" stop-color="#7E9EEA"/>
<stop offset="0.376962" stop-color="#7DA1EB"/>
<stop offset="0.400522" stop-color="#7BA4EC"/>
<stop offset="0.424082" stop-color="#7AA6ED"/>
<stop offset="0.447642" stop-color="#78A9EE"/>
<stop offset="0.471202" stop-color="#77ABEE"/>
<stop offset="0.494762" stop-color="#76AEEF"/>
<stop offset="0.518322" stop-color="#75B1EF"/>
<stop offset="0.541882" stop-color="#74B3F0"/>
<stop offset="0.565442" stop-color="#73B6F0"/>
<stop offset="0.589002" stop-color="#72B8F0"/>
<stop offset="0.612563" stop-color="#71BBF0"/>
<stop offset="0.636123" stop-color="#71BDF0"/>
<stop offset="0.659683" stop-color="#71C0F0"/>
<stop offset="0.683243" stop-color="#70C2F0"/>
<stop offset="0.706803" stop-color="#70C4F0"/>
<stop offset="0.730363" stop-color="#71C7F0"/>
<stop offset="0.753923" stop-color="#71C9EF"/>
<stop offset="0.777483" stop-color="#72CBEF"/>
<stop offset="0.801043" stop-color="#72CDEF"/>
<stop offset="0.824603" stop-color="#73D0EE"/>
<stop offset="0.848163" stop-color="#75D2EE"/>
<stop offset="0.871724" stop-color="#76D4ED"/>
<stop offset="0.895284" stop-color="#78D6ED"/>
<stop offset="0.918844" stop-color="#7AD8EC"/>
<stop offset="0.942404" stop-color="#7BDAEB"/>
<stop offset="0.965964" stop-color="#7EDCEB"/>
<stop offset="0.989524" stop-color="#80DEEA"/>
</linearGradient>
<linearGradient id="paint1_linear_521_3637" x1="4.38332" y1="51.3754" x2="670.495" y2="51.3754" gradientUnits="userSpaceOnUse">
<stop stop-color="#9575CD"/>
<stop offset="0.0235601" stop-color="#9478D0"/>
<stop offset="0.0471202" stop-color="#927BD2"/>
<stop offset="0.0706803" stop-color="#917DD5"/>
<stop offset="0.0942404" stop-color="#8F80D7"/>
<stop offset="0.1178" stop-color="#8E83DA"/>
<stop offset="0.141361" stop-color="#8C86DC"/>
<stop offset="0.164921" stop-color="#8B88DE"/>
<stop offset="0.188481" stop-color="#898BE0"/>
<stop offset="0.212041" stop-color="#888EE2"/>
<stop offset="0.235601" stop-color="#8691E3"/>
<stop offset="0.259161" stop-color="#8593E5"/>
<stop offset="0.282721" stop-color="#8396E6"/>
<stop offset="0.306281" stop-color="#8199E8"/>
<stop offset="0.329841" stop-color="#809CE9"/>
<stop offset="0.353401" stop-color="#7E9EEA"/>
<stop offset="0.376962" stop-color="#7DA1EB"/>
<stop offset="0.400522" stop-color="#7BA4EC"/>
<stop offset="0.424082" stop-color="#7AA6ED"/>
<stop offset="0.447642" stop-color="#78A9EE"/>
<stop offset="0.471202" stop-color="#77ABEE"/>
<stop offset="0.494762" stop-color="#76AEEF"/>
<stop offset="0.518322" stop-color="#75B1EF"/>
<stop offset="0.541882" stop-color="#74B3F0"/>
<stop offset="0.565442" stop-color="#73B6F0"/>
<stop offset="0.589002" stop-color="#72B8F0"/>
<stop offset="0.612563" stop-color="#71BBF0"/>
<stop offset="0.636123" stop-color="#71BDF0"/>
<stop offset="0.659683" stop-color="#71C0F0"/>
<stop offset="0.683243" stop-color="#70C2F0"/>
<stop offset="0.706803" stop-color="#70C4F0"/>
<stop offset="0.730363" stop-color="#71C7F0"/>
<stop offset="0.753923" stop-color="#71C9EF"/>
<stop offset="0.777483" stop-color="#72CBEF"/>
<stop offset="0.801043" stop-color="#72CDEF"/>
<stop offset="0.824603" stop-color="#73D0EE"/>
<stop offset="0.848163" stop-color="#75D2EE"/>
<stop offset="0.871724" stop-color="#76D4ED"/>
<stop offset="0.895284" stop-color="#78D6ED"/>
<stop offset="0.918844" stop-color="#7AD8EC"/>
<stop offset="0.942404" stop-color="#7BDAEB"/>
<stop offset="0.965964" stop-color="#7EDCEB"/>
<stop offset="0.989524" stop-color="#80DEEA"/>
</linearGradient>
<linearGradient id="paint2_linear_521_3637" x1="4.38326" y1="51.3754" x2="670.495" y2="51.3754" gradientUnits="userSpaceOnUse">
<stop stop-color="#9575CD"/>
<stop offset="0.0235601" stop-color="#9478D0"/>
<stop offset="0.0471202" stop-color="#927BD2"/>
<stop offset="0.0706803" stop-color="#917DD5"/>
<stop offset="0.0942404" stop-color="#8F80D7"/>
<stop offset="0.1178" stop-color="#8E83DA"/>
<stop offset="0.141361" stop-color="#8C86DC"/>
<stop offset="0.164921" stop-color="#8B88DE"/>
<stop offset="0.188481" stop-color="#898BE0"/>
<stop offset="0.212041" stop-color="#888EE2"/>
<stop offset="0.235601" stop-color="#8691E3"/>
<stop offset="0.259161" stop-color="#8593E5"/>
<stop offset="0.282721" stop-color="#8396E6"/>
<stop offset="0.306281" stop-color="#8199E8"/>
<stop offset="0.329841" stop-color="#809CE9"/>
<stop offset="0.353401" stop-color="#7E9EEA"/>
<stop offset="0.376962" stop-color="#7DA1EB"/>
<stop offset="0.400522" stop-color="#7BA4EC"/>
<stop offset="0.424082" stop-color="#7AA6ED"/>
<stop offset="0.447642" stop-color="#78A9EE"/>
<stop offset="0.471202" stop-color="#77ABEE"/>
<stop offset="0.494762" stop-color="#76AEEF"/>
<stop offset="0.518322" stop-color="#75B1EF"/>
<stop offset="0.541882" stop-color="#74B3F0"/>
<stop offset="0.565442" stop-color="#73B6F0"/>
<stop offset="0.589002" stop-color="#72B8F0"/>
<stop offset="0.612563" stop-color="#71BBF0"/>
<stop offset="0.636123" stop-color="#71BDF0"/>
<stop offset="0.659683" stop-color="#71C0F0"/>
<stop offset="0.683243" stop-color="#70C2F0"/>
<stop offset="0.706803" stop-color="#70C4F0"/>
<stop offset="0.730363" stop-color="#71C7F0"/>
<stop offset="0.753923" stop-color="#71C9EF"/>
<stop offset="0.777483" stop-color="#72CBEF"/>
<stop offset="0.801043" stop-color="#72CDEF"/>
<stop offset="0.824603" stop-color="#73D0EE"/>
<stop offset="0.848163" stop-color="#75D2EE"/>
<stop offset="0.871724" stop-color="#76D4ED"/>
<stop offset="0.895284" stop-color="#78D6ED"/>
<stop offset="0.918844" stop-color="#7AD8EC"/>
<stop offset="0.942404" stop-color="#7BDAEB"/>
<stop offset="0.965964" stop-color="#7EDCEB"/>
<stop offset="0.989524" stop-color="#80DEEA"/>
</linearGradient>
<linearGradient id="paint3_linear_521_3637" x1="4.38372" y1="51.3754" x2="670.495" y2="51.3754" gradientUnits="userSpaceOnUse">
<stop stop-color="#9575CD"/>
<stop offset="0.0235601" stop-color="#9478D0"/>
<stop offset="0.0471202" stop-color="#927BD2"/>
<stop offset="0.0706803" stop-color="#917DD5"/>
<stop offset="0.0942404" stop-color="#8F80D7"/>
<stop offset="0.1178" stop-color="#8E83DA"/>
<stop offset="0.141361" stop-color="#8C86DC"/>
<stop offset="0.164921" stop-color="#8B88DE"/>
<stop offset="0.188481" stop-color="#898BE0"/>
<stop offset="0.212041" stop-color="#888EE2"/>
<stop offset="0.235601" stop-color="#8691E3"/>
<stop offset="0.259161" stop-color="#8593E5"/>
<stop offset="0.282721" stop-color="#8396E6"/>
<stop offset="0.306281" stop-color="#8199E8"/>
<stop offset="0.329841" stop-color="#809CE9"/>
<stop offset="0.353401" stop-color="#7E9EEA"/>
<stop offset="0.376962" stop-color="#7DA1EB"/>
<stop offset="0.400522" stop-color="#7BA4EC"/>
<stop offset="0.424082" stop-color="#7AA6ED"/>
<stop offset="0.447642" stop-color="#78A9EE"/>
<stop offset="0.471202" stop-color="#77ABEE"/>
<stop offset="0.494762" stop-color="#76AEEF"/>
<stop offset="0.518322" stop-color="#75B1EF"/>
<stop offset="0.541882" stop-color="#74B3F0"/>
<stop offset="0.565442" stop-color="#73B6F0"/>
<stop offset="0.589002" stop-color="#72B8F0"/>
<stop offset="0.612563" stop-color="#71BBF0"/>
<stop offset="0.636123" stop-color="#71BDF0"/>
<stop offset="0.659683" stop-color="#71C0F0"/>
<stop offset="0.683243" stop-color="#70C2F0"/>
<stop offset="0.706803" stop-color="#70C4F0"/>
<stop offset="0.730363" stop-color="#71C7F0"/>
<stop offset="0.753923" stop-color="#71C9EF"/>
<stop offset="0.777483" stop-color="#72CBEF"/>
<stop offset="0.801043" stop-color="#72CDEF"/>
<stop offset="0.824603" stop-color="#73D0EE"/>
<stop offset="0.848163" stop-color="#75D2EE"/>
<stop offset="0.871724" stop-color="#76D4ED"/>
<stop offset="0.895284" stop-color="#78D6ED"/>
<stop offset="0.918844" stop-color="#7AD8EC"/>
<stop offset="0.942404" stop-color="#7BDAEB"/>
<stop offset="0.965964" stop-color="#7EDCEB"/>
<stop offset="0.989524" stop-color="#80DEEA"/>
</linearGradient>
<linearGradient id="paint4_linear_521_3637" x1="253.718" y1="88.9696" x2="286.988" y2="88.9696" gradientUnits="userSpaceOnUse">
<stop stop-color="#F06292"/>
<stop offset="0.0238095" stop-color="#EF659B"/>
<stop offset="0.047619" stop-color="#ED67A3"/>
<stop offset="0.0714286" stop-color="#EB6AAC"/>
<stop offset="0.0952381" stop-color="#E96DB4"/>
<stop offset="0.119048" stop-color="#E670BB"/>
<stop offset="0.142857" stop-color="#E473C3"/>
<stop offset="0.166667" stop-color="#E177CA"/>
<stop offset="0.190476" stop-color="#DE7AD0"/>
<stop offset="0.214286" stop-color="#DB7DD7"/>
<stop offset="0.238095" stop-color="#D780DD"/>
<stop offset="0.261905" stop-color="#D484E2"/>
<stop offset="0.285714" stop-color="#D087E8"/>
<stop offset="0.309524" stop-color="#CC8BED"/>
<stop offset="0.333333" stop-color="#C88EF1"/>
<stop offset="0.357143" stop-color="#C492F5"/>
<stop offset="0.380952" stop-color="#C095F9"/>
<stop offset="0.404762" stop-color="#BB99FD"/>
<stop offset="0.428571" stop-color="#B79CFF"/>
<stop offset="0.452381" stop-color="#B2A0FF"/>
<stop offset="0.47619" stop-color="#AEA3FF"/>
<stop offset="0.5" stop-color="#A9A7FF"/>
<stop offset="0.52381" stop-color="#A5AAFF"/>
<stop offset="0.547619" stop-color="#A0ADFF"/>
<stop offset="0.571429" stop-color="#9CB1FF"/>
<stop offset="0.595238" stop-color="#97B4FF"/>
<stop offset="0.619048" stop-color="#93B7FF"/>
<stop offset="0.642857" stop-color="#8FBAFF"/>
<stop offset="0.666667" stop-color="#8BBDFF"/>
<stop offset="0.690476" stop-color="#87C0FF"/>
<stop offset="0.714286" stop-color="#84C3FF"/>
<stop offset="0.738095" stop-color="#80C6FF"/>
<stop offset="0.761905" stop-color="#7EC9FF"/>
<stop offset="0.785714" stop-color="#7BCBFF"/>
<stop offset="0.809524" stop-color="#7ACEFF"/>
<stop offset="0.833333" stop-color="#78D0FD"/>
<stop offset="0.857143" stop-color="#78D3FB"/>
<stop offset="0.880952" stop-color="#78D5F8"/>
<stop offset="0.904762" stop-color="#78D7F5"/>
<stop offset="0.928571" stop-color="#79D9F3"/>
<stop offset="0.952381" stop-color="#7BDBF0"/>
<stop offset="0.97619" stop-color="#7DDCED"/>
<stop offset="1" stop-color="#80DEEA"/>
</linearGradient>
<linearGradient id="paint5_linear_521_3637" x1="4.38372" y1="51.3754" x2="670.495" y2="51.3754" gradientUnits="userSpaceOnUse">
<stop stop-color="#9575CD"/>
<stop offset="0.0235601" stop-color="#9478D0"/>
<stop offset="0.0471202" stop-color="#927BD2"/>
<stop offset="0.0706803" stop-color="#917DD5"/>
<stop offset="0.0942404" stop-color="#8F80D7"/>
<stop offset="0.1178" stop-color="#8E83DA"/>
<stop offset="0.141361" stop-color="#8C86DC"/>
<stop offset="0.164921" stop-color="#8B88DE"/>
<stop offset="0.188481" stop-color="#898BE0"/>
<stop offset="0.212041" stop-color="#888EE2"/>
<stop offset="0.235601" stop-color="#8691E3"/>
<stop offset="0.259161" stop-color="#8593E5"/>
<stop offset="0.282721" stop-color="#8396E6"/>
<stop offset="0.306281" stop-color="#8199E8"/>
<stop offset="0.329841" stop-color="#809CE9"/>
<stop offset="0.353401" stop-color="#7E9EEA"/>
<stop offset="0.376962" stop-color="#7DA1EB"/>
<stop offset="0.400522" stop-color="#7BA4EC"/>
<stop offset="0.424082" stop-color="#7AA6ED"/>
<stop offset="0.447642" stop-color="#78A9EE"/>
<stop offset="0.471202" stop-color="#77ABEE"/>
<stop offset="0.494762" stop-color="#76AEEF"/>
<stop offset="0.518322" stop-color="#75B1EF"/>
<stop offset="0.541882" stop-color="#74B3F0"/>
<stop offset="0.565442" stop-color="#73B6F0"/>
<stop offset="0.589002" stop-color="#72B8F0"/>
<stop offset="0.612563" stop-color="#71BBF0"/>
<stop offset="0.636123" stop-color="#71BDF0"/>
<stop offset="0.659683" stop-color="#71C0F0"/>
<stop offset="0.683243" stop-color="#70C2F0"/>
<stop offset="0.706803" stop-color="#70C4F0"/>
<stop offset="0.730363" stop-color="#71C7F0"/>
<stop offset="0.753923" stop-color="#71C9EF"/>
<stop offset="0.777483" stop-color="#72CBEF"/>
<stop offset="0.801043" stop-color="#72CDEF"/>
<stop offset="0.824603" stop-color="#73D0EE"/>
<stop offset="0.848163" stop-color="#75D2EE"/>
<stop offset="0.871724" stop-color="#76D4ED"/>
<stop offset="0.895284" stop-color="#78D6ED"/>
<stop offset="0.918844" stop-color="#7AD8EC"/>
<stop offset="0.942404" stop-color="#7BDAEB"/>
<stop offset="0.965964" stop-color="#7EDCEB"/>
<stop offset="0.989524" stop-color="#80DEEA"/>
</linearGradient>
<linearGradient id="paint6_linear_521_3637" x1="4.38276" y1="51.3754" x2="670.495" y2="51.3754" gradientUnits="userSpaceOnUse">
<stop stop-color="#9575CD"/>
<stop offset="0.0235601" stop-color="#9478D0"/>
<stop offset="0.0471202" stop-color="#927BD2"/>
<stop offset="0.0706803" stop-color="#917DD5"/>
<stop offset="0.0942404" stop-color="#8F80D7"/>
<stop offset="0.1178" stop-color="#8E83DA"/>
<stop offset="0.141361" stop-color="#8C86DC"/>
<stop offset="0.164921" stop-color="#8B88DE"/>
<stop offset="0.188481" stop-color="#898BE0"/>
<stop offset="0.212041" stop-color="#888EE2"/>
<stop offset="0.235601" stop-color="#8691E3"/>
<stop offset="0.259161" stop-color="#8593E5"/>
<stop offset="0.282721" stop-color="#8396E6"/>
<stop offset="0.306281" stop-color="#8199E8"/>
<stop offset="0.329841" stop-color="#809CE9"/>
<stop offset="0.353401" stop-color="#7E9EEA"/>
<stop offset="0.376962" stop-color="#7DA1EB"/>
<stop offset="0.400522" stop-color="#7BA4EC"/>
<stop offset="0.424082" stop-color="#7AA6ED"/>
<stop offset="0.447642" stop-color="#78A9EE"/>
<stop offset="0.471202" stop-color="#77ABEE"/>
<stop offset="0.494762" stop-color="#76AEEF"/>
<stop offset="0.518322" stop-color="#75B1EF"/>
<stop offset="0.541882" stop-color="#74B3F0"/>
<stop offset="0.565442" stop-color="#73B6F0"/>
<stop offset="0.589002" stop-color="#72B8F0"/>
<stop offset="0.612563" stop-color="#71BBF0"/>
<stop offset="0.636123" stop-color="#71BDF0"/>
<stop offset="0.659683" stop-color="#71C0F0"/>
<stop offset="0.683243" stop-color="#70C2F0"/>
<stop offset="0.706803" stop-color="#70C4F0"/>
<stop offset="0.730363" stop-color="#71C7F0"/>
<stop offset="0.753923" stop-color="#71C9EF"/>
<stop offset="0.777483" stop-color="#72CBEF"/>
<stop offset="0.801043" stop-color="#72CDEF"/>
<stop offset="0.824603" stop-color="#73D0EE"/>
<stop offset="0.848163" stop-color="#75D2EE"/>
<stop offset="0.871724" stop-color="#76D4ED"/>
<stop offset="0.895284" stop-color="#78D6ED"/>
<stop offset="0.918844" stop-color="#7AD8EC"/>
<stop offset="0.942404" stop-color="#7BDAEB"/>
<stop offset="0.965964" stop-color="#7EDCEB"/>
<stop offset="0.989524" stop-color="#80DEEA"/>
</linearGradient>
<linearGradient id="paint7_linear_521_3637" x1="4.38329" y1="51.3754" x2="670.495" y2="51.3754" gradientUnits="userSpaceOnUse">
<stop stop-color="#9575CD"/>
<stop offset="0.0235601" stop-color="#9478D0"/>
<stop offset="0.0471202" stop-color="#927BD2"/>
<stop offset="0.0706803" stop-color="#917DD5"/>
<stop offset="0.0942404" stop-color="#8F80D7"/>
<stop offset="0.1178" stop-color="#8E83DA"/>
<stop offset="0.141361" stop-color="#8C86DC"/>
<stop offset="0.164921" stop-color="#8B88DE"/>
<stop offset="0.188481" stop-color="#898BE0"/>
<stop offset="0.212041" stop-color="#888EE2"/>
<stop offset="0.235601" stop-color="#8691E3"/>
<stop offset="0.259161" stop-color="#8593E5"/>
<stop offset="0.282721" stop-color="#8396E6"/>
<stop offset="0.306281" stop-color="#8199E8"/>
<stop offset="0.329841" stop-color="#809CE9"/>
<stop offset="0.353401" stop-color="#7E9EEA"/>
<stop offset="0.376962" stop-color="#7DA1EB"/>
<stop offset="0.400522" stop-color="#7BA4EC"/>
<stop offset="0.424082" stop-color="#7AA6ED"/>
<stop offset="0.447642" stop-color="#78A9EE"/>
<stop offset="0.471202" stop-color="#77ABEE"/>
<stop offset="0.494762" stop-color="#76AEEF"/>
<stop offset="0.518322" stop-color="#75B1EF"/>
<stop offset="0.541882" stop-color="#74B3F0"/>
<stop offset="0.565442" stop-color="#73B6F0"/>
<stop offset="0.589002" stop-color="#72B8F0"/>
<stop offset="0.612563" stop-color="#71BBF0"/>
<stop offset="0.636123" stop-color="#71BDF0"/>
<stop offset="0.659683" stop-color="#71C0F0"/>
<stop offset="0.683243" stop-color="#70C2F0"/>
<stop offset="0.706803" stop-color="#70C4F0"/>
<stop offset="0.730363" stop-color="#71C7F0"/>
<stop offset="0.753923" stop-color="#71C9EF"/>
<stop offset="0.777483" stop-color="#72CBEF"/>
<stop offset="0.801043" stop-color="#72CDEF"/>
<stop offset="0.824603" stop-color="#73D0EE"/>
<stop offset="0.848163" stop-color="#75D2EE"/>
<stop offset="0.871724" stop-color="#76D4ED"/>
<stop offset="0.895284" stop-color="#78D6ED"/>
<stop offset="0.918844" stop-color="#7AD8EC"/>
<stop offset="0.942404" stop-color="#7BDAEB"/>
<stop offset="0.965964" stop-color="#7EDCEB"/>
<stop offset="0.989524" stop-color="#80DEEA"/>
</linearGradient>
<linearGradient id="paint8_linear_521_3637" x1="4.38379" y1="51.3754" x2="670.495" y2="51.3754" gradientUnits="userSpaceOnUse">
<stop stop-color="#9575CD"/>
<stop offset="0.0235601" stop-color="#9478D0"/>
<stop offset="0.0471202" stop-color="#927BD2"/>
<stop offset="0.0706803" stop-color="#917DD5"/>
<stop offset="0.0942404" stop-color="#8F80D7"/>
<stop offset="0.1178" stop-color="#8E83DA"/>
<stop offset="0.141361" stop-color="#8C86DC"/>
<stop offset="0.164921" stop-color="#8B88DE"/>
<stop offset="0.188481" stop-color="#898BE0"/>
<stop offset="0.212041" stop-color="#888EE2"/>
<stop offset="0.235601" stop-color="#8691E3"/>
<stop offset="0.259161" stop-color="#8593E5"/>
<stop offset="0.282721" stop-color="#8396E6"/>
<stop offset="0.306281" stop-color="#8199E8"/>
<stop offset="0.329841" stop-color="#809CE9"/>
<stop offset="0.353401" stop-color="#7E9EEA"/>
<stop offset="0.376962" stop-color="#7DA1EB"/>
<stop offset="0.400522" stop-color="#7BA4EC"/>
<stop offset="0.424082" stop-color="#7AA6ED"/>
<stop offset="0.447642" stop-color="#78A9EE"/>
<stop offset="0.471202" stop-color="#77ABEE"/>
<stop offset="0.494762" stop-color="#76AEEF"/>
<stop offset="0.518322" stop-color="#75B1EF"/>
<stop offset="0.541882" stop-color="#74B3F0"/>
<stop offset="0.565442" stop-color="#73B6F0"/>
<stop offset="0.589002" stop-color="#72B8F0"/>
<stop offset="0.612563" stop-color="#71BBF0"/>
<stop offset="0.636123" stop-color="#71BDF0"/>
<stop offset="0.659683" stop-color="#71C0F0"/>
<stop offset="0.683243" stop-color="#70C2F0"/>
<stop offset="0.706803" stop-color="#70C4F0"/>
<stop offset="0.730363" stop-color="#71C7F0"/>
<stop offset="0.753923" stop-color="#71C9EF"/>
<stop offset="0.777483" stop-color="#72CBEF"/>
<stop offset="0.801043" stop-color="#72CDEF"/>
<stop offset="0.824603" stop-color="#73D0EE"/>
<stop offset="0.848163" stop-color="#75D2EE"/>
<stop offset="0.871724" stop-color="#76D4ED"/>
<stop offset="0.895284" stop-color="#78D6ED"/>
<stop offset="0.918844" stop-color="#7AD8EC"/>
<stop offset="0.942404" stop-color="#7BDAEB"/>
<stop offset="0.965964" stop-color="#7EDCEB"/>
<stop offset="0.989524" stop-color="#80DEEA"/>
</linearGradient>
<linearGradient id="paint9_linear_521_3637" x1="4.38298" y1="51.3754" x2="670.494" y2="51.3754" gradientUnits="userSpaceOnUse">
<stop stop-color="#9575CD"/>
<stop offset="0.0235601" stop-color="#9478D0"/>
<stop offset="0.0471202" stop-color="#927BD2"/>
<stop offset="0.0706803" stop-color="#917DD5"/>
<stop offset="0.0942404" stop-color="#8F80D7"/>
<stop offset="0.1178" stop-color="#8E83DA"/>
<stop offset="0.141361" stop-color="#8C86DC"/>
<stop offset="0.164921" stop-color="#8B88DE"/>
<stop offset="0.188481" stop-color="#898BE0"/>
<stop offset="0.212041" stop-color="#888EE2"/>
<stop offset="0.235601" stop-color="#8691E3"/>
<stop offset="0.259161" stop-color="#8593E5"/>
<stop offset="0.282721" stop-color="#8396E6"/>
<stop offset="0.306281" stop-color="#8199E8"/>
<stop offset="0.329841" stop-color="#809CE9"/>
<stop offset="0.353401" stop-color="#7E9EEA"/>
<stop offset="0.376962" stop-color="#7DA1EB"/>
<stop offset="0.400522" stop-color="#7BA4EC"/>
<stop offset="0.424082" stop-color="#7AA6ED"/>
<stop offset="0.447642" stop-color="#78A9EE"/>
<stop offset="0.471202" stop-color="#77ABEE"/>
<stop offset="0.494762" stop-color="#76AEEF"/>
<stop offset="0.518322" stop-color="#75B1EF"/>
<stop offset="0.541882" stop-color="#74B3F0"/>
<stop offset="0.565442" stop-color="#73B6F0"/>
<stop offset="0.589002" stop-color="#72B8F0"/>
<stop offset="0.612563" stop-color="#71BBF0"/>
<stop offset="0.636123" stop-color="#71BDF0"/>
<stop offset="0.659683" stop-color="#71C0F0"/>
<stop offset="0.683243" stop-color="#70C2F0"/>
<stop offset="0.706803" stop-color="#70C4F0"/>
<stop offset="0.730363" stop-color="#71C7F0"/>
<stop offset="0.753923" stop-color="#71C9EF"/>
<stop offset="0.777483" stop-color="#72CBEF"/>
<stop offset="0.801043" stop-color="#72CDEF"/>
<stop offset="0.824603" stop-color="#73D0EE"/>
<stop offset="0.848163" stop-color="#75D2EE"/>
<stop offset="0.871724" stop-color="#76D4ED"/>
<stop offset="0.895284" stop-color="#78D6ED"/>
<stop offset="0.918844" stop-color="#7AD8EC"/>
<stop offset="0.942404" stop-color="#7BDAEB"/>
<stop offset="0.965964" stop-color="#7EDCEB"/>
<stop offset="0.989524" stop-color="#80DEEA"/>
</linearGradient>
<clipPath id="clip0_521_3637">
<rect width="669" height="159" fill="white"/>
</clipPath>
</defs>
</svg>
