<svg width="685" height="183" viewBox="0 0 685 183" fill="none" xmlns="http://www.w3.org/2000/svg">
<g clip-path="url(#clip0_8_158)">
<path d="M659.738 135.94C649.655 126.369 633.538 126.665 623.814 136.6L615.233 145.367L606.335 136.922C596.251 127.35 580.135 127.646 570.411 137.582C560.686 147.517 560.979 163.387 571.064 172.958C576.106 177.744 582.656 180.062 589.161 179.943C595.665 179.823 602.126 177.265 606.988 172.298L615.569 163.53L624.467 171.976C629.509 176.762 636.059 179.081 642.564 178.961C649.069 178.842 655.529 176.284 660.391 171.316C670.116 161.381 669.823 145.511 659.738 135.94ZM597.584 163.373C592.86 168.199 585.031 168.343 580.132 163.693C575.233 159.044 575.09 151.334 579.815 146.507C582.177 144.094 585.315 142.851 588.475 142.793C591.635 142.735 594.817 143.861 597.267 146.186L606.152 154.619L597.584 163.373ZM650.988 162.391C646.263 167.217 638.434 167.361 633.535 162.712L624.65 154.279L633.218 145.525C637.942 140.699 645.771 140.555 650.67 145.205C655.569 149.854 655.712 157.564 650.988 162.391Z" fill="url(#paint0_linear_8_158)"/>
<path opacity="0.4" d="M615.568 163.53L624.65 154.279L633.534 162.711L624.467 171.976L615.568 163.53Z" fill="url(#paint1_linear_8_158)"/>
<path opacity="0.4" d="M615.234 145.368L606.152 154.619L597.267 146.187L606.335 136.922L615.234 145.368Z" fill="url(#paint2_linear_8_158)"/>
<path d="M11.7015 95.0743L9.0127 92.1872L22.1744 76.405L25.575 80.6827C28.2378 84.0287 31.716 86.7736 35.616 88.6128C39.2843 90.3489 43.2465 91.2555 47.0688 91.2555C51.5804 91.2555 55.4267 90.2597 57.8993 88.4595C60.1284 86.8376 61.2118 84.6668 61.2118 81.8066C61.2118 78.6902 60.2563 76.7627 57.8234 74.9365C55.0189 72.8419 50.483 71.1308 45.2215 69.1392C44.7758 68.9729 44.3179 68.7945 43.8462 68.6154C36.6217 65.9214 29.6787 63.1505 24.1097 58.7067C20.8742 56.1271 18.4792 53.279 16.7841 50.0101C14.899 46.3837 13.9435 42.2593 13.9435 37.7513C13.9435 29.8983 17.3328 22.6325 23.4738 17.2941C29.4369 12.1228 37.4493 9.27563 46.051 9.27563C57.1598 9.27563 68.0025 13.2849 77.392 20.8574L80.7824 23.6031L68.5624 39.5396L64.996 36.6023C58.715 31.405 51.8085 28.4298 46.051 28.4298C40.6995 28.4298 34.4307 30.754 34.3287 37.3046C34.2907 40.2287 35.6921 41.8246 37.8191 43.3192C40.8654 45.4642 45.7053 47.3154 50.8287 49.2819L50.8788 49.2949C51.6823 49.6145 52.484 49.934 53.2875 50.2396C60.5362 53.0877 67.3909 55.7694 72.5885 60.06C78.7295 65.142 81.7241 71.833 81.7241 80.5294C81.7241 85.2417 80.7183 89.6216 78.7295 93.5536C76.8564 97.2322 74.1816 100.438 70.7414 103.081C64.4742 107.881 56.0262 110.538 46.9426 110.538C33.513 110.538 21.002 105.048 11.7015 95.0743Z" fill="url(#paint3_linear_8_158)"/>
<path d="M133.585 10.1694H116.347L78.6982 109.772H99.873L124.935 40.7267L150.213 109.772H171.387L133.585 10.1694Z" fill="url(#paint4_linear_8_158)"/>
<path d="M125.11 109.772L109.292 85.2292H140.793L125.11 109.772Z" fill="url(#paint5_linear_8_158)"/>
<path d="M237.045 19.5422C231.032 13.3231 222.252 10.1694 210.94 10.1694H174.883V109.772H194.885V29.1962H209.792C214.724 29.1962 218.672 30.3704 221.195 32.6054C223.693 34.7892 224.955 38.1221 224.955 42.476C224.955 46.6905 223.731 49.9592 221.323 52.1942C218.494 54.8119 214.022 56.1402 208.009 56.1402H204.649V75.1661H209.029C214.2 75.1661 218.978 74.541 223.208 73.3149C227.72 71.9995 231.63 69.9949 234.854 67.3513C238.255 64.5552 240.879 61.0561 242.65 56.9446C244.435 52.7943 245.339 48.0188 245.339 42.7315C245.339 33.1804 242.473 25.1611 237.045 19.5422Z" fill="url(#paint6_linear_8_158)"/>
<path d="M253.614 16.5538L273.618 10.1694V109.772H253.614V16.5538Z" fill="url(#paint7_linear_8_158)"/>
<path d="M287.757 109.772H352.097V91.1274H287.757V109.772ZM287.757 69.6753H352.097V50.6485H287.757V69.6753ZM287.757 10.1694V29.1962H352.097V10.1694H287.757Z" fill="url(#paint8_linear_8_158)"/>
<path d="M383.305 47.5712V109.772H363.303V10.1694H381.025L425.477 72.9442V10.1694H445.481V109.772H427.376L383.305 47.5712Z" fill="url(#paint9_linear_8_158)"/>
<path d="M454.278 95.0743L451.589 92.1872L464.751 76.405L468.151 80.6827C470.814 84.0287 474.292 86.7736 478.192 88.6128C481.86 90.3489 485.823 91.2555 489.645 91.2555C494.157 91.2555 498.003 90.2597 500.475 88.4595C502.705 86.8376 503.788 84.6668 503.788 81.8066C503.788 78.6902 502.832 76.7627 500.4 74.9365C497.595 72.8419 493.059 71.1308 487.798 69.1392C487.352 68.9729 486.894 68.7945 486.422 68.6154C479.198 65.9214 472.255 63.1505 466.686 58.7067C463.45 56.1271 461.055 53.279 459.36 50.0101C457.475 46.3837 456.52 42.2593 456.52 37.7513C456.52 29.8983 459.909 22.6325 466.05 17.2941C472.013 12.1228 480.025 9.27563 488.627 9.27563C499.736 9.27563 510.579 13.2849 519.968 20.8574L523.359 23.6031L511.139 39.5396L507.572 36.6023C501.291 31.405 494.385 28.4298 488.627 28.4298C483.276 28.4298 477.007 30.754 476.905 37.3046C476.867 40.2287 478.268 41.8246 480.395 43.3192C483.442 45.4642 488.281 47.3154 493.405 49.2819L493.455 49.2949C494.258 49.6145 495.06 49.934 495.864 50.2396C503.112 53.0877 509.967 55.7694 515.165 60.06C521.306 65.142 524.3 71.833 524.3 80.5294C524.3 85.2417 523.295 89.6216 521.306 93.5536C519.433 97.2322 516.758 100.438 513.318 103.081C507.05 107.881 498.602 110.538 489.519 110.538C476.089 110.538 463.578 105.048 454.278 95.0743Z" fill="url(#paint10_linear_8_158)"/>
<path d="M539.239 106.188C543.443 106.188 546.755 102.869 546.755 98.655C546.755 94.4414 543.443 91.1216 539.239 91.1216C535.034 91.1216 531.595 94.4414 531.595 98.655C531.595 102.869 535.034 106.188 539.239 106.188Z" fill="url(#paint11_linear_8_158)"/>
<path d="M605.846 10.1694H588.608L550.959 109.772H572.134L597.196 40.7267L622.474 109.772H643.648L605.846 10.1694Z" fill="url(#paint12_linear_8_158)"/>
<path d="M597.371 109.772L581.553 85.2292H613.053L597.371 109.772Z" fill="url(#paint13_linear_8_158)"/>
<path d="M647.78 16.5538L667.784 10.1694V109.772H647.78V16.5538Z" fill="url(#paint14_linear_8_158)"/>
<path d="M55.6927 140.136C55.4293 139.835 55.053 139.685 54.5638 139.685C54.0369 139.685 53.5853 139.798 53.2843 139.986C52.9832 140.212 52.7574 140.55 52.6069 140.964L47.4889 158.877C47.3383 159.404 46.962 159.705 46.3975 159.668C45.833 159.668 45.4567 159.404 45.3062 158.84L40.6021 141.341C40.5269 140.964 40.3011 140.626 39.9247 140.4C39.586 140.174 39.2097 140.061 38.7958 140.061C38.3442 140.061 37.9302 140.212 37.5915 140.437C37.2152 140.701 36.9894 141.002 36.9141 141.378L32.2477 158.689C32.0972 159.254 31.7585 159.517 31.194 159.517C30.5919 159.555 30.2532 159.254 30.1027 158.727L25.0599 141.152C24.9094 140.701 24.646 140.324 24.3073 140.061C23.9686 139.835 23.5922 139.685 23.1407 139.685C22.6138 139.685 22.2375 139.835 21.9364 140.136C21.6354 140.437 21.5225 140.851 21.5225 141.378C21.5225 141.754 21.5601 142.093 21.673 142.394L29.2371 167.533C29.3876 168.022 29.6134 168.398 29.9898 168.662C30.3285 168.963 30.7424 169.076 31.194 169.076C31.6456 169.076 32.0219 168.963 32.3606 168.662C32.6993 168.361 32.9251 168.022 33.1133 167.57C33.1133 167.533 33.1509 167.495 33.1509 167.457L37.7044 150.071C37.855 149.507 38.2313 149.206 38.7958 149.206C39.3979 149.206 39.7366 149.507 39.8871 150.071L44.403 167.495C44.403 167.533 44.4406 167.57 44.4406 167.608C44.5912 168.022 44.817 168.398 45.1933 168.662C45.532 168.963 45.9083 169.076 46.3975 169.076C46.8491 169.076 47.2254 168.963 47.5641 168.662C47.9028 168.361 48.1286 168.022 48.3168 167.533C48.3168 167.533 48.3544 167.495 48.3544 167.457L55.9185 142.394C55.9938 142.093 56.0691 141.717 56.0691 141.341C56.0691 140.851 55.9185 140.437 55.6927 140.136Z" fill="white"/>
<path d="M83.6131 169.452C85.6452 169.452 87.6021 169.076 89.4837 168.285C91.2901 167.533 92.8707 166.441 94.2631 165.049C95.6555 163.656 96.7468 162.076 97.4995 160.27C98.2897 158.388 98.7037 156.431 98.7037 154.399C98.7037 152.367 98.2897 150.41 97.4995 148.528C96.7468 146.722 95.6555 145.141 94.2631 143.749C92.8707 142.357 91.2901 141.265 89.4837 140.513C87.6021 139.722 85.6452 139.308 83.6131 139.308C81.5809 139.308 79.624 139.722 77.7424 140.513C75.9361 141.265 74.3555 142.357 72.9631 143.749C71.5707 145.141 70.4794 146.722 69.7267 148.528C68.9364 150.41 68.5225 152.367 68.5225 154.399C68.5225 156.431 68.9364 158.388 69.7267 160.27C70.4794 162.076 71.5707 163.656 72.9631 165.049C74.3555 166.441 75.9361 167.533 77.7424 168.285C79.624 169.076 81.5809 169.452 83.6131 169.452ZM83.6131 142.996C86.7742 142.996 89.4461 144.125 91.6664 146.346C93.8868 148.566 95.0157 151.238 95.0157 154.399C95.0157 157.56 93.8868 160.232 91.6664 162.452C89.4461 164.673 86.7742 165.764 83.6131 165.764C80.452 165.764 77.78 164.673 75.5597 162.452C73.3394 160.232 72.2481 157.56 72.2481 154.399C72.2481 151.238 73.3394 148.566 75.5597 146.346C77.78 144.125 80.452 142.996 83.6131 142.996Z" fill="white"/>
<path d="M135.808 167.307C135.808 166.893 135.657 166.479 135.431 166.065L130.276 157.861C130.125 157.598 130.087 157.297 130.163 156.996C130.238 156.695 130.388 156.469 130.652 156.281C131.743 155.641 132.646 154.775 133.361 153.684C134.265 152.329 134.716 150.749 134.716 148.942C134.716 147.136 134.302 145.555 133.474 144.125C132.646 142.733 131.517 141.642 130.05 140.851C128.582 140.099 126.926 139.685 125.082 139.685H118.308C117.744 139.685 117.255 139.873 116.916 140.249C116.54 140.626 116.352 141.077 116.352 141.642V167.119C116.352 167.683 116.54 168.135 116.916 168.511C117.292 168.887 117.744 169.076 118.308 169.076C118.873 169.076 119.325 168.887 119.701 168.511C120.077 168.172 120.265 167.683 120.265 167.119V158.877C120.265 158.576 120.341 158.313 120.566 158.087C120.792 157.861 121.056 157.748 121.357 157.748H125.082H125.12C125.534 157.748 125.835 157.936 126.061 158.313L132.232 168.135C132.609 168.775 133.173 169.076 133.926 169.076C134.49 169.076 134.942 168.925 135.281 168.586C135.619 168.248 135.808 167.834 135.808 167.307ZM125.082 154.136H121.357C121.056 154.136 120.792 154.06 120.566 153.835C120.341 153.609 120.265 153.345 120.265 153.044V144.426C120.265 144.125 120.341 143.862 120.566 143.636C120.792 143.41 121.056 143.297 121.357 143.297H125.082C126.776 143.297 128.168 143.824 129.297 144.878C130.388 145.932 130.953 147.286 130.953 148.942C130.953 150.485 130.388 151.727 129.297 152.706C128.168 153.684 126.776 154.136 125.082 154.136Z" fill="white"/>
<path d="M155.148 168.474C155.524 168.097 155.713 167.646 155.713 167.081V158.501C155.713 158.2 155.788 157.937 156.014 157.711L157.481 156.243C157.707 156.017 158.008 155.904 158.347 155.904C158.686 155.942 158.987 156.093 159.175 156.394L167.943 168.248C168.319 168.775 168.846 169.076 169.561 169.076C170.051 169.076 170.465 168.85 170.803 168.474C171.104 168.097 171.292 167.646 171.292 167.157C171.292 166.705 171.142 166.291 170.916 165.952L161.696 153.383C161.508 153.157 161.433 152.931 161.47 152.63C161.508 152.367 161.583 152.141 161.809 151.915L170.728 142.996C171.18 142.507 171.443 141.943 171.443 141.303C171.443 140.814 171.292 140.437 170.991 140.136C170.69 139.835 170.276 139.685 169.787 139.685C169.448 139.685 169.185 139.722 168.959 139.835C168.733 139.948 168.432 140.174 168.131 140.475L157.632 150.975C157.256 151.351 156.842 151.426 156.39 151.238C155.938 151.05 155.713 150.674 155.713 150.184V141.642C155.713 141.077 155.524 140.626 155.148 140.249C154.772 139.873 154.283 139.685 153.756 139.685C153.191 139.685 152.74 139.873 152.363 140.249C151.987 140.626 151.799 141.077 151.799 141.642V167.119C151.799 167.646 151.987 168.097 152.363 168.511C152.74 168.888 153.191 169.076 153.756 169.076C154.283 169.076 154.772 168.85 155.148 168.474Z" fill="white"/>
<path d="M227.587 141.566C225.367 140.324 222.846 139.685 220.023 139.685H213.212C212.647 139.685 212.158 139.873 211.819 140.249C211.443 140.626 211.255 141.077 211.255 141.642V167.119C211.255 167.683 211.443 168.135 211.819 168.511C212.196 168.887 212.647 169.076 213.212 169.076H220.023C222.846 169.076 225.367 168.474 227.587 167.194C229.77 165.952 231.501 164.221 232.743 162.001C233.947 159.743 234.587 157.221 234.587 154.399C234.587 151.539 233.947 149.018 232.743 146.797C231.501 144.577 229.77 142.846 227.587 141.566ZM225.593 164.221C223.937 165.162 222.093 165.651 220.023 165.651H216.298C215.959 165.651 215.696 165.538 215.47 165.312C215.244 165.087 215.169 164.823 215.169 164.484V144.313C215.169 143.975 215.244 143.711 215.47 143.486C215.696 143.26 215.959 143.185 216.298 143.185H220.023C222.093 143.185 223.937 143.636 225.593 144.615C227.249 145.555 228.528 146.872 229.431 148.604C230.335 150.297 230.824 152.216 230.824 154.399C230.824 156.544 230.335 158.463 229.431 160.194C228.528 161.925 227.249 163.243 225.593 164.221Z" fill="white"/>
<path d="M252.95 140.249C252.574 140.626 252.386 141.077 252.386 141.642V167.119C252.386 167.683 252.574 168.135 252.95 168.511C253.327 168.887 253.778 169.076 254.343 169.076C254.907 169.076 255.359 168.887 255.735 168.511C256.111 168.135 256.3 167.683 256.3 167.119V141.642C256.3 141.077 256.111 140.626 255.735 140.249C255.359 139.873 254.907 139.685 254.343 139.685C253.778 139.685 253.327 139.873 252.95 140.249Z" fill="white"/>
<path d="M289.226 152.931C288.85 152.593 288.398 152.405 287.871 152.405H278.2C277.861 152.405 277.597 152.329 277.372 152.104C277.146 151.878 277.071 151.614 277.071 151.276V144.427C277.071 144.088 277.146 143.824 277.372 143.599C277.597 143.373 277.861 143.298 278.2 143.298H292.086C292.688 143.298 293.14 143.109 293.478 142.808C293.855 142.47 294.005 142.056 294.005 141.529C294.005 140.964 293.855 140.513 293.478 140.174C293.14 139.835 292.688 139.685 292.086 139.685H275.076C274.549 139.685 274.06 139.835 273.684 140.212C273.307 140.588 273.119 141.04 273.119 141.642V167.119C273.119 167.646 273.307 168.135 273.684 168.511C274.06 168.888 274.549 169.076 275.076 169.076C275.641 169.076 276.092 168.888 276.468 168.511C276.845 168.135 277.033 167.646 277.033 167.119V157.184C277.033 156.845 277.146 156.582 277.372 156.356C277.597 156.13 277.861 156.055 278.2 156.055H287.833C288.398 156.055 288.85 155.867 289.226 155.528C289.602 155.189 289.753 154.775 289.753 154.249C289.753 153.684 289.602 153.27 289.226 152.931Z" fill="white"/>
<path d="M324.41 152.931C324.034 152.593 323.582 152.405 323.056 152.405H313.384C313.045 152.405 312.782 152.329 312.556 152.104C312.33 151.878 312.255 151.614 312.255 151.276V144.427C312.255 144.088 312.33 143.824 312.556 143.599C312.782 143.373 313.045 143.298 313.384 143.298H327.27C327.873 143.298 328.324 143.109 328.663 142.808C329.039 142.47 329.19 142.056 329.19 141.529C329.19 140.964 329.039 140.513 328.663 140.174C328.324 139.835 327.873 139.685 327.27 139.685H310.261C309.734 139.685 309.245 139.835 308.868 140.212C308.492 140.588 308.304 141.04 308.304 141.642V167.119C308.304 167.646 308.492 168.135 308.868 168.511C309.245 168.888 309.734 169.076 310.261 169.076C310.825 169.076 311.277 168.888 311.653 168.511C312.029 168.135 312.217 167.646 312.217 167.119V157.184C312.217 156.845 312.33 156.582 312.556 156.356C312.782 156.13 313.045 156.055 313.384 156.055H323.018C323.582 156.055 324.034 155.867 324.41 155.528C324.787 155.189 324.937 154.775 324.937 154.249C324.937 153.684 324.787 153.27 324.41 152.931Z" fill="white"/>
<path d="M366.219 165.952C365.842 165.651 365.391 165.463 364.826 165.463H350.902C350.563 165.463 350.3 165.388 350.074 165.162C349.848 164.936 349.773 164.673 349.773 164.334V157.221C349.773 156.883 349.848 156.619 350.074 156.394C350.3 156.168 350.563 156.055 350.902 156.055H360.574C361.101 156.055 361.552 155.904 361.928 155.566C362.305 155.227 362.493 154.813 362.493 154.248C362.493 153.722 362.305 153.308 361.928 152.969C361.552 152.63 361.101 152.442 360.574 152.442H350.902C350.563 152.442 350.3 152.367 350.074 152.141C349.848 151.915 349.773 151.652 349.773 151.313V144.464C349.773 144.125 349.848 143.862 350.074 143.636C350.3 143.41 350.563 143.297 350.902 143.297H364.826C365.391 143.297 365.842 143.147 366.219 142.808C366.557 142.507 366.745 142.056 366.745 141.529C366.745 141.002 366.557 140.55 366.219 140.212C365.842 139.873 365.391 139.685 364.826 139.685H347.816C347.252 139.685 346.763 139.873 346.424 140.249C346.048 140.626 345.859 141.077 345.859 141.642V167.119C345.859 167.683 346.048 168.135 346.424 168.511C346.8 168.887 347.252 169.076 347.816 169.076H364.826C365.391 169.076 365.842 168.925 366.219 168.586C366.557 168.248 366.745 167.796 366.745 167.269C366.745 166.742 366.557 166.291 366.219 165.952Z" fill="white"/>
<path d="M403.322 167.307C403.322 166.893 403.172 166.479 402.946 166.065L397.79 157.861C397.64 157.598 397.602 157.297 397.677 156.996C397.753 156.695 397.903 156.469 398.167 156.281C399.258 155.641 400.161 154.775 400.876 153.684C401.779 152.329 402.231 150.749 402.231 148.942C402.231 147.136 401.817 145.555 400.989 144.125C400.161 142.733 399.032 141.642 397.564 140.851C396.097 140.099 394.441 139.685 392.597 139.685H385.823C385.259 139.685 384.769 139.873 384.431 140.249C384.054 140.626 383.866 141.077 383.866 141.642V167.119C383.866 167.683 384.054 168.135 384.431 168.511C384.807 168.887 385.259 169.076 385.823 169.076C386.388 169.076 386.839 168.887 387.216 168.511C387.592 168.172 387.78 167.683 387.78 167.119V158.877C387.78 158.576 387.855 158.313 388.081 158.087C388.307 157.861 388.57 157.748 388.871 157.748H392.597H392.635C393.049 157.748 393.35 157.936 393.575 158.313L399.747 168.135C400.123 168.775 400.688 169.076 401.441 169.076C402.005 169.076 402.457 168.925 402.795 168.586C403.134 168.248 403.322 167.834 403.322 167.307ZM392.597 154.136H388.871C388.57 154.136 388.307 154.06 388.081 153.835C387.855 153.609 387.78 153.345 387.78 153.044V144.426C387.78 144.125 387.855 143.862 388.081 143.636C388.307 143.41 388.57 143.297 388.871 143.297H392.597C394.29 143.297 395.683 143.824 396.812 144.878C397.903 145.932 398.468 147.286 398.468 148.942C398.468 150.485 397.903 151.727 396.812 152.706C395.683 153.684 394.29 154.136 392.597 154.136Z" fill="white"/>
<path d="M439.673 165.952C439.296 165.651 438.845 165.463 438.28 165.463H424.356C424.018 165.463 423.754 165.388 423.528 165.162C423.303 164.936 423.227 164.673 423.227 164.334V157.221C423.227 156.883 423.303 156.619 423.528 156.394C423.754 156.168 424.018 156.055 424.356 156.055H434.028C434.555 156.055 435.006 155.904 435.383 155.566C435.759 155.227 435.947 154.813 435.947 154.248C435.947 153.722 435.759 153.308 435.383 152.969C435.006 152.63 434.555 152.442 434.028 152.442H424.356C424.018 152.442 423.754 152.367 423.528 152.141C423.303 151.915 423.227 151.652 423.227 151.313V144.464C423.227 144.125 423.303 143.862 423.528 143.636C423.754 143.41 424.018 143.297 424.356 143.297H438.28C438.845 143.297 439.296 143.147 439.673 142.808C440.011 142.507 440.2 142.056 440.2 141.529C440.2 141.002 440.011 140.55 439.673 140.212C439.296 139.873 438.845 139.685 438.28 139.685H421.27C420.706 139.685 420.217 139.873 419.878 140.249C419.502 140.626 419.313 141.077 419.313 141.642V167.119C419.313 167.683 419.502 168.135 419.878 168.511C420.254 168.887 420.706 169.076 421.27 169.076H438.28C438.845 169.076 439.296 168.925 439.673 168.586C440.011 168.248 440.2 167.796 440.2 167.269C440.2 166.742 440.011 166.291 439.673 165.952Z" fill="white"/>
<path d="M477.717 140.212C477.303 140.588 477.153 141.04 477.153 141.604V158.84C477.153 159.367 476.889 159.705 476.362 159.893C475.835 160.082 475.422 159.931 475.12 159.517L460.745 140.437C460.745 140.4 460.745 140.4 460.707 140.362C460.519 140.136 460.293 139.986 460.067 139.873C459.766 139.722 459.503 139.685 459.24 139.685C458.675 139.685 458.223 139.835 457.847 140.212C457.471 140.588 457.32 141.04 457.32 141.642V167.119C457.32 167.683 457.471 168.135 457.847 168.511C458.223 168.888 458.675 169.076 459.24 169.076C459.804 169.076 460.256 168.888 460.632 168.511C461.008 168.135 461.196 167.646 461.196 167.119V149.921C461.196 149.394 461.422 149.018 461.949 148.867C462.476 148.679 462.89 148.829 463.229 149.243L477.604 168.398C477.755 168.624 477.943 168.775 478.244 168.888C478.545 169 478.808 169.076 479.11 169.076C479.636 169.076 480.088 168.888 480.464 168.511C480.841 168.135 481.029 167.683 481.029 167.119V141.642C481.029 141.04 480.841 140.588 480.464 140.212C480.088 139.835 479.636 139.685 479.11 139.685C478.545 139.685 478.056 139.835 477.717 140.212Z" fill="white"/>
<path d="M520.24 140.212C519.901 139.873 519.487 139.685 518.96 139.685H498.827C498.3 139.685 497.848 139.873 497.51 140.212C497.171 140.55 497.021 140.964 497.021 141.491C497.021 142.018 497.171 142.469 497.51 142.808C497.848 143.147 498.3 143.297 498.827 143.297H505.827C506.128 143.297 506.391 143.41 506.617 143.636C506.843 143.862 506.955 144.125 506.955 144.426V167.119C506.955 167.683 507.144 168.135 507.52 168.511C507.896 168.887 508.348 169.076 508.912 169.076C509.439 169.076 509.928 168.887 510.305 168.511C510.681 168.135 510.869 167.683 510.869 167.119V144.426C510.869 144.125 510.982 143.862 511.208 143.636C511.434 143.41 511.697 143.297 511.998 143.297H518.96C519.487 143.297 519.901 143.147 520.24 142.808C520.578 142.469 520.767 142.018 520.767 141.491C520.767 140.964 520.578 140.55 520.24 140.212Z" fill="white"/>
</g>
<defs>
<linearGradient id="paint0_linear_8_158" x1="584.657" y1="185.86" x2="645.165" y2="122.108" gradientUnits="userSpaceOnUse">
<stop stop-color="#F06292"/>
<stop offset="0.49588" stop-color="#9575CD"/>
<stop offset="1" stop-color="#80DEEA"/>
</linearGradient>
<linearGradient id="paint1_linear_8_158" x1="620.102" y1="158.898" x2="628.869" y2="167.478" gradientUnits="userSpaceOnUse">
<stop/>
<stop offset="1" stop-opacity="0"/>
</linearGradient>
<linearGradient id="paint2_linear_8_158" x1="610.7" y1="150" x2="601.933" y2="141.42" gradientUnits="userSpaceOnUse">
<stop/>
<stop offset="1" stop-opacity="0"/>
</linearGradient>
<linearGradient id="paint3_linear_8_158" x1="9.0127" y1="60.7934" x2="669.553" y2="60.7934" gradientUnits="userSpaceOnUse">
<stop stop-color="#9575CD"/>
<stop offset="0.0235601" stop-color="#9478D0"/>
<stop offset="0.0471202" stop-color="#927BD2"/>
<stop offset="0.0706803" stop-color="#917DD5"/>
<stop offset="0.0942404" stop-color="#8F80D7"/>
<stop offset="0.1178" stop-color="#8E83DA"/>
<stop offset="0.141361" stop-color="#8C86DC"/>
<stop offset="0.164921" stop-color="#8B88DE"/>
<stop offset="0.188481" stop-color="#898BE0"/>
<stop offset="0.212041" stop-color="#888EE2"/>
<stop offset="0.235601" stop-color="#8691E3"/>
<stop offset="0.259161" stop-color="#8593E5"/>
<stop offset="0.282721" stop-color="#8396E6"/>
<stop offset="0.306281" stop-color="#8199E8"/>
<stop offset="0.329841" stop-color="#809CE9"/>
<stop offset="0.353401" stop-color="#7E9EEA"/>
<stop offset="0.376962" stop-color="#7DA1EB"/>
<stop offset="0.400522" stop-color="#7BA4EC"/>
<stop offset="0.424082" stop-color="#7AA6ED"/>
<stop offset="0.447642" stop-color="#78A9EE"/>
<stop offset="0.471202" stop-color="#77ABEE"/>
<stop offset="0.494762" stop-color="#76AEEF"/>
<stop offset="0.518322" stop-color="#75B1EF"/>
<stop offset="0.541882" stop-color="#74B3F0"/>
<stop offset="0.565442" stop-color="#73B6F0"/>
<stop offset="0.589002" stop-color="#72B8F0"/>
<stop offset="0.612563" stop-color="#71BBF0"/>
<stop offset="0.636123" stop-color="#71BDF0"/>
<stop offset="0.659683" stop-color="#71C0F0"/>
<stop offset="0.683243" stop-color="#70C2F0"/>
<stop offset="0.706803" stop-color="#70C4F0"/>
<stop offset="0.730363" stop-color="#71C7F0"/>
<stop offset="0.753923" stop-color="#71C9EF"/>
<stop offset="0.777483" stop-color="#72CBEF"/>
<stop offset="0.801043" stop-color="#72CDEF"/>
<stop offset="0.824603" stop-color="#73D0EE"/>
<stop offset="0.848163" stop-color="#75D2EE"/>
<stop offset="0.871724" stop-color="#76D4ED"/>
<stop offset="0.895284" stop-color="#78D6ED"/>
<stop offset="0.918844" stop-color="#7AD8EC"/>
<stop offset="0.942404" stop-color="#7BDAEB"/>
<stop offset="0.965964" stop-color="#7EDCEB"/>
<stop offset="0.989524" stop-color="#80DEEA"/>
</linearGradient>
<linearGradient id="paint4_linear_8_158" x1="9.01219" y1="60.7934" x2="669.553" y2="60.7934" gradientUnits="userSpaceOnUse">
<stop stop-color="#9575CD"/>
<stop offset="0.0235601" stop-color="#9478D0"/>
<stop offset="0.0471202" stop-color="#927BD2"/>
<stop offset="0.0706803" stop-color="#917DD5"/>
<stop offset="0.0942404" stop-color="#8F80D7"/>
<stop offset="0.1178" stop-color="#8E83DA"/>
<stop offset="0.141361" stop-color="#8C86DC"/>
<stop offset="0.164921" stop-color="#8B88DE"/>
<stop offset="0.188481" stop-color="#898BE0"/>
<stop offset="0.212041" stop-color="#888EE2"/>
<stop offset="0.235601" stop-color="#8691E3"/>
<stop offset="0.259161" stop-color="#8593E5"/>
<stop offset="0.282721" stop-color="#8396E6"/>
<stop offset="0.306281" stop-color="#8199E8"/>
<stop offset="0.329841" stop-color="#809CE9"/>
<stop offset="0.353401" stop-color="#7E9EEA"/>
<stop offset="0.376962" stop-color="#7DA1EB"/>
<stop offset="0.400522" stop-color="#7BA4EC"/>
<stop offset="0.424082" stop-color="#7AA6ED"/>
<stop offset="0.447642" stop-color="#78A9EE"/>
<stop offset="0.471202" stop-color="#77ABEE"/>
<stop offset="0.494762" stop-color="#76AEEF"/>
<stop offset="0.518322" stop-color="#75B1EF"/>
<stop offset="0.541882" stop-color="#74B3F0"/>
<stop offset="0.565442" stop-color="#73B6F0"/>
<stop offset="0.589002" stop-color="#72B8F0"/>
<stop offset="0.612563" stop-color="#71BBF0"/>
<stop offset="0.636123" stop-color="#71BDF0"/>
<stop offset="0.659683" stop-color="#71C0F0"/>
<stop offset="0.683243" stop-color="#70C2F0"/>
<stop offset="0.706803" stop-color="#70C4F0"/>
<stop offset="0.730363" stop-color="#71C7F0"/>
<stop offset="0.753923" stop-color="#71C9EF"/>
<stop offset="0.777483" stop-color="#72CBEF"/>
<stop offset="0.801043" stop-color="#72CDEF"/>
<stop offset="0.824603" stop-color="#73D0EE"/>
<stop offset="0.848163" stop-color="#75D2EE"/>
<stop offset="0.871724" stop-color="#76D4ED"/>
<stop offset="0.895284" stop-color="#78D6ED"/>
<stop offset="0.918844" stop-color="#7AD8EC"/>
<stop offset="0.942404" stop-color="#7BDAEB"/>
<stop offset="0.965964" stop-color="#7EDCEB"/>
<stop offset="0.989524" stop-color="#80DEEA"/>
</linearGradient>
<linearGradient id="paint5_linear_8_158" x1="109.292" y1="98.3876" x2="614.822" y2="98.3876" gradientUnits="userSpaceOnUse">
<stop stop-color="#F06292"/>
<stop offset="0.0238095" stop-color="#EF659B"/>
<stop offset="0.047619" stop-color="#ED67A3"/>
<stop offset="0.0714286" stop-color="#EB6AAC"/>
<stop offset="0.0952381" stop-color="#E96DB4"/>
<stop offset="0.119048" stop-color="#E670BB"/>
<stop offset="0.142857" stop-color="#E473C3"/>
<stop offset="0.166667" stop-color="#E177CA"/>
<stop offset="0.190476" stop-color="#DE7AD0"/>
<stop offset="0.214286" stop-color="#DB7DD7"/>
<stop offset="0.238095" stop-color="#D780DD"/>
<stop offset="0.261905" stop-color="#D484E2"/>
<stop offset="0.285714" stop-color="#D087E8"/>
<stop offset="0.309524" stop-color="#CC8BED"/>
<stop offset="0.333333" stop-color="#C88EF1"/>
<stop offset="0.357143" stop-color="#C492F5"/>
<stop offset="0.380952" stop-color="#C095F9"/>
<stop offset="0.404762" stop-color="#BB99FD"/>
<stop offset="0.428571" stop-color="#B79CFF"/>
<stop offset="0.452381" stop-color="#B2A0FF"/>
<stop offset="0.47619" stop-color="#AEA3FF"/>
<stop offset="0.5" stop-color="#A9A7FF"/>
<stop offset="0.52381" stop-color="#A5AAFF"/>
<stop offset="0.547619" stop-color="#A0ADFF"/>
<stop offset="0.571429" stop-color="#9CB1FF"/>
<stop offset="0.595238" stop-color="#97B4FF"/>
<stop offset="0.619048" stop-color="#93B7FF"/>
<stop offset="0.642857" stop-color="#8FBAFF"/>
<stop offset="0.666667" stop-color="#8BBDFF"/>
<stop offset="0.690476" stop-color="#87C0FF"/>
<stop offset="0.714286" stop-color="#84C3FF"/>
<stop offset="0.738095" stop-color="#80C6FF"/>
<stop offset="0.761905" stop-color="#7EC9FF"/>
<stop offset="0.785714" stop-color="#7BCBFF"/>
<stop offset="0.809524" stop-color="#7ACEFF"/>
<stop offset="0.833333" stop-color="#78D0FD"/>
<stop offset="0.857143" stop-color="#78D3FB"/>
<stop offset="0.880952" stop-color="#78D5F8"/>
<stop offset="0.904762" stop-color="#78D7F5"/>
<stop offset="0.928571" stop-color="#79D9F3"/>
<stop offset="0.952381" stop-color="#7BDBF0"/>
<stop offset="0.97619" stop-color="#7DDCED"/>
<stop offset="1" stop-color="#80DEEA"/>
</linearGradient>
<linearGradient id="paint6_linear_8_158" x1="9.01218" y1="60.7934" x2="669.552" y2="60.7934" gradientUnits="userSpaceOnUse">
<stop stop-color="#9575CD"/>
<stop offset="0.0235601" stop-color="#9478D0"/>
<stop offset="0.0471202" stop-color="#927BD2"/>
<stop offset="0.0706803" stop-color="#917DD5"/>
<stop offset="0.0942404" stop-color="#8F80D7"/>
<stop offset="0.1178" stop-color="#8E83DA"/>
<stop offset="0.141361" stop-color="#8C86DC"/>
<stop offset="0.164921" stop-color="#8B88DE"/>
<stop offset="0.188481" stop-color="#898BE0"/>
<stop offset="0.212041" stop-color="#888EE2"/>
<stop offset="0.235601" stop-color="#8691E3"/>
<stop offset="0.259161" stop-color="#8593E5"/>
<stop offset="0.282721" stop-color="#8396E6"/>
<stop offset="0.306281" stop-color="#8199E8"/>
<stop offset="0.329841" stop-color="#809CE9"/>
<stop offset="0.353401" stop-color="#7E9EEA"/>
<stop offset="0.376962" stop-color="#7DA1EB"/>
<stop offset="0.400522" stop-color="#7BA4EC"/>
<stop offset="0.424082" stop-color="#7AA6ED"/>
<stop offset="0.447642" stop-color="#78A9EE"/>
<stop offset="0.471202" stop-color="#77ABEE"/>
<stop offset="0.494762" stop-color="#76AEEF"/>
<stop offset="0.518322" stop-color="#75B1EF"/>
<stop offset="0.541882" stop-color="#74B3F0"/>
<stop offset="0.565442" stop-color="#73B6F0"/>
<stop offset="0.589002" stop-color="#72B8F0"/>
<stop offset="0.612563" stop-color="#71BBF0"/>
<stop offset="0.636123" stop-color="#71BDF0"/>
<stop offset="0.659683" stop-color="#71C0F0"/>
<stop offset="0.683243" stop-color="#70C2F0"/>
<stop offset="0.706803" stop-color="#70C4F0"/>
<stop offset="0.730363" stop-color="#71C7F0"/>
<stop offset="0.753923" stop-color="#71C9EF"/>
<stop offset="0.777483" stop-color="#72CBEF"/>
<stop offset="0.801043" stop-color="#72CDEF"/>
<stop offset="0.824603" stop-color="#73D0EE"/>
<stop offset="0.848163" stop-color="#75D2EE"/>
<stop offset="0.871724" stop-color="#76D4ED"/>
<stop offset="0.895284" stop-color="#78D6ED"/>
<stop offset="0.918844" stop-color="#7AD8EC"/>
<stop offset="0.942404" stop-color="#7BDAEB"/>
<stop offset="0.965964" stop-color="#7EDCEB"/>
<stop offset="0.989524" stop-color="#80DEEA"/>
</linearGradient>
<linearGradient id="paint7_linear_8_158" x1="9.01227" y1="60.7934" x2="669.553" y2="60.7934" gradientUnits="userSpaceOnUse">
<stop stop-color="#9575CD"/>
<stop offset="0.0235601" stop-color="#9478D0"/>
<stop offset="0.0471202" stop-color="#927BD2"/>
<stop offset="0.0706803" stop-color="#917DD5"/>
<stop offset="0.0942404" stop-color="#8F80D7"/>
<stop offset="0.1178" stop-color="#8E83DA"/>
<stop offset="0.141361" stop-color="#8C86DC"/>
<stop offset="0.164921" stop-color="#8B88DE"/>
<stop offset="0.188481" stop-color="#898BE0"/>
<stop offset="0.212041" stop-color="#888EE2"/>
<stop offset="0.235601" stop-color="#8691E3"/>
<stop offset="0.259161" stop-color="#8593E5"/>
<stop offset="0.282721" stop-color="#8396E6"/>
<stop offset="0.306281" stop-color="#8199E8"/>
<stop offset="0.329841" stop-color="#809CE9"/>
<stop offset="0.353401" stop-color="#7E9EEA"/>
<stop offset="0.376962" stop-color="#7DA1EB"/>
<stop offset="0.400522" stop-color="#7BA4EC"/>
<stop offset="0.424082" stop-color="#7AA6ED"/>
<stop offset="0.447642" stop-color="#78A9EE"/>
<stop offset="0.471202" stop-color="#77ABEE"/>
<stop offset="0.494762" stop-color="#76AEEF"/>
<stop offset="0.518322" stop-color="#75B1EF"/>
<stop offset="0.541882" stop-color="#74B3F0"/>
<stop offset="0.565442" stop-color="#73B6F0"/>
<stop offset="0.589002" stop-color="#72B8F0"/>
<stop offset="0.612563" stop-color="#71BBF0"/>
<stop offset="0.636123" stop-color="#71BDF0"/>
<stop offset="0.659683" stop-color="#71C0F0"/>
<stop offset="0.683243" stop-color="#70C2F0"/>
<stop offset="0.706803" stop-color="#70C4F0"/>
<stop offset="0.730363" stop-color="#71C7F0"/>
<stop offset="0.753923" stop-color="#71C9EF"/>
<stop offset="0.777483" stop-color="#72CBEF"/>
<stop offset="0.801043" stop-color="#72CDEF"/>
<stop offset="0.824603" stop-color="#73D0EE"/>
<stop offset="0.848163" stop-color="#75D2EE"/>
<stop offset="0.871724" stop-color="#76D4ED"/>
<stop offset="0.895284" stop-color="#78D6ED"/>
<stop offset="0.918844" stop-color="#7AD8EC"/>
<stop offset="0.942404" stop-color="#7BDAEB"/>
<stop offset="0.965964" stop-color="#7EDCEB"/>
<stop offset="0.989524" stop-color="#80DEEA"/>
</linearGradient>
<linearGradient id="paint8_linear_8_158" x1="9.01269" y1="60.7934" x2="669.553" y2="60.7934" gradientUnits="userSpaceOnUse">
<stop stop-color="#9575CD"/>
<stop offset="0.0235601" stop-color="#9478D0"/>
<stop offset="0.0471202" stop-color="#927BD2"/>
<stop offset="0.0706803" stop-color="#917DD5"/>
<stop offset="0.0942404" stop-color="#8F80D7"/>
<stop offset="0.1178" stop-color="#8E83DA"/>
<stop offset="0.141361" stop-color="#8C86DC"/>
<stop offset="0.164921" stop-color="#8B88DE"/>
<stop offset="0.188481" stop-color="#898BE0"/>
<stop offset="0.212041" stop-color="#888EE2"/>
<stop offset="0.235601" stop-color="#8691E3"/>
<stop offset="0.259161" stop-color="#8593E5"/>
<stop offset="0.282721" stop-color="#8396E6"/>
<stop offset="0.306281" stop-color="#8199E8"/>
<stop offset="0.329841" stop-color="#809CE9"/>
<stop offset="0.353401" stop-color="#7E9EEA"/>
<stop offset="0.376962" stop-color="#7DA1EB"/>
<stop offset="0.400522" stop-color="#7BA4EC"/>
<stop offset="0.424082" stop-color="#7AA6ED"/>
<stop offset="0.447642" stop-color="#78A9EE"/>
<stop offset="0.471202" stop-color="#77ABEE"/>
<stop offset="0.494762" stop-color="#76AEEF"/>
<stop offset="0.518322" stop-color="#75B1EF"/>
<stop offset="0.541882" stop-color="#74B3F0"/>
<stop offset="0.565442" stop-color="#73B6F0"/>
<stop offset="0.589002" stop-color="#72B8F0"/>
<stop offset="0.612563" stop-color="#71BBF0"/>
<stop offset="0.636123" stop-color="#71BDF0"/>
<stop offset="0.659683" stop-color="#71C0F0"/>
<stop offset="0.683243" stop-color="#70C2F0"/>
<stop offset="0.706803" stop-color="#70C4F0"/>
<stop offset="0.730363" stop-color="#71C7F0"/>
<stop offset="0.753923" stop-color="#71C9EF"/>
<stop offset="0.777483" stop-color="#72CBEF"/>
<stop offset="0.801043" stop-color="#72CDEF"/>
<stop offset="0.824603" stop-color="#73D0EE"/>
<stop offset="0.848163" stop-color="#75D2EE"/>
<stop offset="0.871724" stop-color="#76D4ED"/>
<stop offset="0.895284" stop-color="#78D6ED"/>
<stop offset="0.918844" stop-color="#7AD8EC"/>
<stop offset="0.942404" stop-color="#7BDAEB"/>
<stop offset="0.965964" stop-color="#7EDCEB"/>
<stop offset="0.989524" stop-color="#80DEEA"/>
</linearGradient>
<linearGradient id="paint9_linear_8_158" x1="9.01224" y1="60.7934" x2="669.553" y2="60.7934" gradientUnits="userSpaceOnUse">
<stop stop-color="#9575CD"/>
<stop offset="0.0235601" stop-color="#9478D0"/>
<stop offset="0.0471202" stop-color="#927BD2"/>
<stop offset="0.0706803" stop-color="#917DD5"/>
<stop offset="0.0942404" stop-color="#8F80D7"/>
<stop offset="0.1178" stop-color="#8E83DA"/>
<stop offset="0.141361" stop-color="#8C86DC"/>
<stop offset="0.164921" stop-color="#8B88DE"/>
<stop offset="0.188481" stop-color="#898BE0"/>
<stop offset="0.212041" stop-color="#888EE2"/>
<stop offset="0.235601" stop-color="#8691E3"/>
<stop offset="0.259161" stop-color="#8593E5"/>
<stop offset="0.282721" stop-color="#8396E6"/>
<stop offset="0.306281" stop-color="#8199E8"/>
<stop offset="0.329841" stop-color="#809CE9"/>
<stop offset="0.353401" stop-color="#7E9EEA"/>
<stop offset="0.376962" stop-color="#7DA1EB"/>
<stop offset="0.400522" stop-color="#7BA4EC"/>
<stop offset="0.424082" stop-color="#7AA6ED"/>
<stop offset="0.447642" stop-color="#78A9EE"/>
<stop offset="0.471202" stop-color="#77ABEE"/>
<stop offset="0.494762" stop-color="#76AEEF"/>
<stop offset="0.518322" stop-color="#75B1EF"/>
<stop offset="0.541882" stop-color="#74B3F0"/>
<stop offset="0.565442" stop-color="#73B6F0"/>
<stop offset="0.589002" stop-color="#72B8F0"/>
<stop offset="0.612563" stop-color="#71BBF0"/>
<stop offset="0.636123" stop-color="#71BDF0"/>
<stop offset="0.659683" stop-color="#71C0F0"/>
<stop offset="0.683243" stop-color="#70C2F0"/>
<stop offset="0.706803" stop-color="#70C4F0"/>
<stop offset="0.730363" stop-color="#71C7F0"/>
<stop offset="0.753923" stop-color="#71C9EF"/>
<stop offset="0.777483" stop-color="#72CBEF"/>
<stop offset="0.801043" stop-color="#72CDEF"/>
<stop offset="0.824603" stop-color="#73D0EE"/>
<stop offset="0.848163" stop-color="#75D2EE"/>
<stop offset="0.871724" stop-color="#76D4ED"/>
<stop offset="0.895284" stop-color="#78D6ED"/>
<stop offset="0.918844" stop-color="#7AD8EC"/>
<stop offset="0.942404" stop-color="#7BDAEB"/>
<stop offset="0.965964" stop-color="#7EDCEB"/>
<stop offset="0.989524" stop-color="#80DEEA"/>
</linearGradient>
<linearGradient id="paint10_linear_8_158" x1="9.0124" y1="60.7934" x2="669.553" y2="60.7934" gradientUnits="userSpaceOnUse">
<stop stop-color="#9575CD"/>
<stop offset="0.0235601" stop-color="#9478D0"/>
<stop offset="0.0471202" stop-color="#927BD2"/>
<stop offset="0.0706803" stop-color="#917DD5"/>
<stop offset="0.0942404" stop-color="#8F80D7"/>
<stop offset="0.1178" stop-color="#8E83DA"/>
<stop offset="0.141361" stop-color="#8C86DC"/>
<stop offset="0.164921" stop-color="#8B88DE"/>
<stop offset="0.188481" stop-color="#898BE0"/>
<stop offset="0.212041" stop-color="#888EE2"/>
<stop offset="0.235601" stop-color="#8691E3"/>
<stop offset="0.259161" stop-color="#8593E5"/>
<stop offset="0.282721" stop-color="#8396E6"/>
<stop offset="0.306281" stop-color="#8199E8"/>
<stop offset="0.329841" stop-color="#809CE9"/>
<stop offset="0.353401" stop-color="#7E9EEA"/>
<stop offset="0.376962" stop-color="#7DA1EB"/>
<stop offset="0.400522" stop-color="#7BA4EC"/>
<stop offset="0.424082" stop-color="#7AA6ED"/>
<stop offset="0.447642" stop-color="#78A9EE"/>
<stop offset="0.471202" stop-color="#77ABEE"/>
<stop offset="0.494762" stop-color="#76AEEF"/>
<stop offset="0.518322" stop-color="#75B1EF"/>
<stop offset="0.541882" stop-color="#74B3F0"/>
<stop offset="0.565442" stop-color="#73B6F0"/>
<stop offset="0.589002" stop-color="#72B8F0"/>
<stop offset="0.612563" stop-color="#71BBF0"/>
<stop offset="0.636123" stop-color="#71BDF0"/>
<stop offset="0.659683" stop-color="#71C0F0"/>
<stop offset="0.683243" stop-color="#70C2F0"/>
<stop offset="0.706803" stop-color="#70C4F0"/>
<stop offset="0.730363" stop-color="#71C7F0"/>
<stop offset="0.753923" stop-color="#71C9EF"/>
<stop offset="0.777483" stop-color="#72CBEF"/>
<stop offset="0.801043" stop-color="#72CDEF"/>
<stop offset="0.824603" stop-color="#73D0EE"/>
<stop offset="0.848163" stop-color="#75D2EE"/>
<stop offset="0.871724" stop-color="#76D4ED"/>
<stop offset="0.895284" stop-color="#78D6ED"/>
<stop offset="0.918844" stop-color="#7AD8EC"/>
<stop offset="0.942404" stop-color="#7BDAEB"/>
<stop offset="0.965964" stop-color="#7EDCEB"/>
<stop offset="0.989524" stop-color="#80DEEA"/>
</linearGradient>
<linearGradient id="paint11_linear_8_158" x1="9.01304" y1="60.7934" x2="669.553" y2="60.7934" gradientUnits="userSpaceOnUse">
<stop stop-color="#9575CD"/>
<stop offset="0.0235601" stop-color="#9478D0"/>
<stop offset="0.0471202" stop-color="#927BD2"/>
<stop offset="0.0706803" stop-color="#917DD5"/>
<stop offset="0.0942404" stop-color="#8F80D7"/>
<stop offset="0.1178" stop-color="#8E83DA"/>
<stop offset="0.141361" stop-color="#8C86DC"/>
<stop offset="0.164921" stop-color="#8B88DE"/>
<stop offset="0.188481" stop-color="#898BE0"/>
<stop offset="0.212041" stop-color="#888EE2"/>
<stop offset="0.235601" stop-color="#8691E3"/>
<stop offset="0.259161" stop-color="#8593E5"/>
<stop offset="0.282721" stop-color="#8396E6"/>
<stop offset="0.306281" stop-color="#8199E8"/>
<stop offset="0.329841" stop-color="#809CE9"/>
<stop offset="0.353401" stop-color="#7E9EEA"/>
<stop offset="0.376962" stop-color="#7DA1EB"/>
<stop offset="0.400522" stop-color="#7BA4EC"/>
<stop offset="0.424082" stop-color="#7AA6ED"/>
<stop offset="0.447642" stop-color="#78A9EE"/>
<stop offset="0.471202" stop-color="#77ABEE"/>
<stop offset="0.494762" stop-color="#76AEEF"/>
<stop offset="0.518322" stop-color="#75B1EF"/>
<stop offset="0.541882" stop-color="#74B3F0"/>
<stop offset="0.565442" stop-color="#73B6F0"/>
<stop offset="0.589002" stop-color="#72B8F0"/>
<stop offset="0.612563" stop-color="#71BBF0"/>
<stop offset="0.636123" stop-color="#71BDF0"/>
<stop offset="0.659683" stop-color="#71C0F0"/>
<stop offset="0.683243" stop-color="#70C2F0"/>
<stop offset="0.706803" stop-color="#70C4F0"/>
<stop offset="0.730363" stop-color="#71C7F0"/>
<stop offset="0.753923" stop-color="#71C9EF"/>
<stop offset="0.777483" stop-color="#72CBEF"/>
<stop offset="0.801043" stop-color="#72CDEF"/>
<stop offset="0.824603" stop-color="#73D0EE"/>
<stop offset="0.848163" stop-color="#75D2EE"/>
<stop offset="0.871724" stop-color="#76D4ED"/>
<stop offset="0.895284" stop-color="#78D6ED"/>
<stop offset="0.918844" stop-color="#7AD8EC"/>
<stop offset="0.942404" stop-color="#7BDAEB"/>
<stop offset="0.965964" stop-color="#7EDCEB"/>
<stop offset="0.989524" stop-color="#80DEEA"/>
</linearGradient>
<linearGradient id="paint12_linear_8_158" x1="9.01299" y1="60.7934" x2="669.553" y2="60.7934" gradientUnits="userSpaceOnUse">
<stop stop-color="#9575CD"/>
<stop offset="0.0235601" stop-color="#9478D0"/>
<stop offset="0.0471202" stop-color="#927BD2"/>
<stop offset="0.0706803" stop-color="#917DD5"/>
<stop offset="0.0942404" stop-color="#8F80D7"/>
<stop offset="0.1178" stop-color="#8E83DA"/>
<stop offset="0.141361" stop-color="#8C86DC"/>
<stop offset="0.164921" stop-color="#8B88DE"/>
<stop offset="0.188481" stop-color="#898BE0"/>
<stop offset="0.212041" stop-color="#888EE2"/>
<stop offset="0.235601" stop-color="#8691E3"/>
<stop offset="0.259161" stop-color="#8593E5"/>
<stop offset="0.282721" stop-color="#8396E6"/>
<stop offset="0.306281" stop-color="#8199E8"/>
<stop offset="0.329841" stop-color="#809CE9"/>
<stop offset="0.353401" stop-color="#7E9EEA"/>
<stop offset="0.376962" stop-color="#7DA1EB"/>
<stop offset="0.400522" stop-color="#7BA4EC"/>
<stop offset="0.424082" stop-color="#7AA6ED"/>
<stop offset="0.447642" stop-color="#78A9EE"/>
<stop offset="0.471202" stop-color="#77ABEE"/>
<stop offset="0.494762" stop-color="#76AEEF"/>
<stop offset="0.518322" stop-color="#75B1EF"/>
<stop offset="0.541882" stop-color="#74B3F0"/>
<stop offset="0.565442" stop-color="#73B6F0"/>
<stop offset="0.589002" stop-color="#72B8F0"/>
<stop offset="0.612563" stop-color="#71BBF0"/>
<stop offset="0.636123" stop-color="#71BDF0"/>
<stop offset="0.659683" stop-color="#71C0F0"/>
<stop offset="0.683243" stop-color="#70C2F0"/>
<stop offset="0.706803" stop-color="#70C4F0"/>
<stop offset="0.730363" stop-color="#71C7F0"/>
<stop offset="0.753923" stop-color="#71C9EF"/>
<stop offset="0.777483" stop-color="#72CBEF"/>
<stop offset="0.801043" stop-color="#72CDEF"/>
<stop offset="0.824603" stop-color="#73D0EE"/>
<stop offset="0.848163" stop-color="#75D2EE"/>
<stop offset="0.871724" stop-color="#76D4ED"/>
<stop offset="0.895284" stop-color="#78D6ED"/>
<stop offset="0.918844" stop-color="#7AD8EC"/>
<stop offset="0.942404" stop-color="#7BDAEB"/>
<stop offset="0.965964" stop-color="#7EDCEB"/>
<stop offset="0.989524" stop-color="#80DEEA"/>
</linearGradient>
<linearGradient id="paint13_linear_8_158" x1="109.293" y1="98.3876" x2="614.823" y2="98.3876" gradientUnits="userSpaceOnUse">
<stop stop-color="#F06292"/>
<stop offset="0.0238095" stop-color="#EF659B"/>
<stop offset="0.047619" stop-color="#ED67A3"/>
<stop offset="0.0714286" stop-color="#EB6AAC"/>
<stop offset="0.0952381" stop-color="#E96DB4"/>
<stop offset="0.119048" stop-color="#E670BB"/>
<stop offset="0.142857" stop-color="#E473C3"/>
<stop offset="0.166667" stop-color="#E177CA"/>
<stop offset="0.190476" stop-color="#DE7AD0"/>
<stop offset="0.214286" stop-color="#DB7DD7"/>
<stop offset="0.238095" stop-color="#D780DD"/>
<stop offset="0.261905" stop-color="#D484E2"/>
<stop offset="0.285714" stop-color="#D087E8"/>
<stop offset="0.309524" stop-color="#CC8BED"/>
<stop offset="0.333333" stop-color="#C88EF1"/>
<stop offset="0.357143" stop-color="#C492F5"/>
<stop offset="0.380952" stop-color="#C095F9"/>
<stop offset="0.404762" stop-color="#BB99FD"/>
<stop offset="0.428571" stop-color="#B79CFF"/>
<stop offset="0.452381" stop-color="#B2A0FF"/>
<stop offset="0.47619" stop-color="#AEA3FF"/>
<stop offset="0.5" stop-color="#A9A7FF"/>
<stop offset="0.52381" stop-color="#A5AAFF"/>
<stop offset="0.547619" stop-color="#A0ADFF"/>
<stop offset="0.571429" stop-color="#9CB1FF"/>
<stop offset="0.595238" stop-color="#97B4FF"/>
<stop offset="0.619048" stop-color="#93B7FF"/>
<stop offset="0.642857" stop-color="#8FBAFF"/>
<stop offset="0.666667" stop-color="#8BBDFF"/>
<stop offset="0.690476" stop-color="#87C0FF"/>
<stop offset="0.714286" stop-color="#84C3FF"/>
<stop offset="0.738095" stop-color="#80C6FF"/>
<stop offset="0.761905" stop-color="#7EC9FF"/>
<stop offset="0.785714" stop-color="#7BCBFF"/>
<stop offset="0.809524" stop-color="#7ACEFF"/>
<stop offset="0.833333" stop-color="#78D0FD"/>
<stop offset="0.857143" stop-color="#78D3FB"/>
<stop offset="0.880952" stop-color="#78D5F8"/>
<stop offset="0.904762" stop-color="#78D7F5"/>
<stop offset="0.928571" stop-color="#79D9F3"/>
<stop offset="0.952381" stop-color="#7BDBF0"/>
<stop offset="0.97619" stop-color="#7DDCED"/>
<stop offset="1" stop-color="#80DEEA"/>
</linearGradient>
<linearGradient id="paint14_linear_8_158" x1="9.0124" y1="60.7934" x2="669.553" y2="60.7934" gradientUnits="userSpaceOnUse">
<stop stop-color="#9575CD"/>
<stop offset="0.0235601" stop-color="#9478D0"/>
<stop offset="0.0471202" stop-color="#927BD2"/>
<stop offset="0.0706803" stop-color="#917DD5"/>
<stop offset="0.0942404" stop-color="#8F80D7"/>
<stop offset="0.1178" stop-color="#8E83DA"/>
<stop offset="0.141361" stop-color="#8C86DC"/>
<stop offset="0.164921" stop-color="#8B88DE"/>
<stop offset="0.188481" stop-color="#898BE0"/>
<stop offset="0.212041" stop-color="#888EE2"/>
<stop offset="0.235601" stop-color="#8691E3"/>
<stop offset="0.259161" stop-color="#8593E5"/>
<stop offset="0.282721" stop-color="#8396E6"/>
<stop offset="0.306281" stop-color="#8199E8"/>
<stop offset="0.329841" stop-color="#809CE9"/>
<stop offset="0.353401" stop-color="#7E9EEA"/>
<stop offset="0.376962" stop-color="#7DA1EB"/>
<stop offset="0.400522" stop-color="#7BA4EC"/>
<stop offset="0.424082" stop-color="#7AA6ED"/>
<stop offset="0.447642" stop-color="#78A9EE"/>
<stop offset="0.471202" stop-color="#77ABEE"/>
<stop offset="0.494762" stop-color="#76AEEF"/>
<stop offset="0.518322" stop-color="#75B1EF"/>
<stop offset="0.541882" stop-color="#74B3F0"/>
<stop offset="0.565442" stop-color="#73B6F0"/>
<stop offset="0.589002" stop-color="#72B8F0"/>
<stop offset="0.612563" stop-color="#71BBF0"/>
<stop offset="0.636123" stop-color="#71BDF0"/>
<stop offset="0.659683" stop-color="#71C0F0"/>
<stop offset="0.683243" stop-color="#70C2F0"/>
<stop offset="0.706803" stop-color="#70C4F0"/>
<stop offset="0.730363" stop-color="#71C7F0"/>
<stop offset="0.753923" stop-color="#71C9EF"/>
<stop offset="0.777483" stop-color="#72CBEF"/>
<stop offset="0.801043" stop-color="#72CDEF"/>
<stop offset="0.824603" stop-color="#73D0EE"/>
<stop offset="0.848163" stop-color="#75D2EE"/>
<stop offset="0.871724" stop-color="#76D4ED"/>
<stop offset="0.895284" stop-color="#78D6ED"/>
<stop offset="0.918844" stop-color="#7AD8EC"/>
<stop offset="0.942404" stop-color="#7BDAEB"/>
<stop offset="0.965964" stop-color="#7EDCEB"/>
<stop offset="0.989524" stop-color="#80DEEA"/>
</linearGradient>
<clipPath id="clip0_8_158">
<rect width="685" height="183" fill="white"/>
</clipPath>
</defs>
</svg>
